<?xml version="1.0" encoding="utf-8"?>
<!-- Generator: Adobe Illustrator 24.3.0, SVG Export Plug-In . SVG Version: 6.00 Build 0)  -->
<svg version="1.1" id="Layer_1" xmlns="http://www.w3.org/2000/svg" xmlns:xlink="http://www.w3.org/1999/xlink" x="0px" y="0px"
	 viewBox="0 0 512 512" style="enable-background:new 0 0 512 512;" xml:space="preserve">
<style type="text/css">
	.st0{display:none;}
	.st1{display:inline;}
	.st2{display:inline;fill:#FFFFFF;}
	.st3{fill:#FFCB08;}
</style>
<g class="st0">
	<path class="st1" d="M222.5,498c0-9.2,0-18.5,0-28.2c6.9,0,13.1,0,19.8,0c0-7.8,0-15.2,0-22.5c0-7.2,0-14.4,0-21.8
		c-20.3-2-39.5-7-58-15.6c-3.9,6.8-7.7,13.3-11.7,20.2c4.4,2.7,8.6,5.2,13.3,8c-4.7,8.1-9.3,16.1-14.1,24.5
		c-17.2-9.9-34.1-19.7-51.5-29.7c4.7-8.2,9.3-16.2,14.2-24.6c4.5,2.5,8.8,5,13.4,7.7c3.9-6.7,7.7-13.3,11.8-20.3
		c-16.4-11.8-30.6-25.7-42.3-42.4c-12.9,7.5-25.5,14.7-38.3,22.1c3.2,5.6,6.2,10.9,9.6,16.7c-8.1,4.7-16.2,9.4-24.6,14.2
		c-11.2-19.4-22.3-38.6-33.5-58.1c8.3-4.8,16.3-9.4,24.6-14.2c3.2,5.5,6.3,10.7,9.8,16.6c12.7-7.3,25.3-14.6,37.7-21.7
		c-3.3-9.7-7.1-19-9.7-28.7c-2.6-9.5-3.9-19.3-5.9-29.4c-7.1,0-14.7,0-22.9,0c0,5,0,9.9,0,15.2c-9.5,0-18.6,0-28,0
		c0-19.6,0-39.2,0-59.1c9.1,0,18.3,0,27.8,0c0,5,0,9.8,0,15c7.9,0,15.5,0,23.7,0c2-19.8,6.9-39.1,15.6-57.6
		c-12.8-7.4-25.3-14.6-38.2-22.1c-3.3,5.6-6.5,10.9-9.9,16.6c-8.2-4.7-16.2-9.3-24.5-14.2c11.2-19.4,22.2-38.6,33.5-58.1
		c8.3,4.8,16.2,9.3,24.6,14.2c-3.2,5.6-6.3,11-9.6,16.7c12.7,7.4,25.3,14.7,38.3,22.1c11.8-16.5,25.8-30.6,42.4-42.3
		c-4-6.9-7.8-13.5-11.8-20.3c-4.5,2.6-8.7,4.9-13.4,7.6c-4.7-8-9.3-16-14.2-24.5c17.2-9.9,34.2-19.8,51.5-29.8
		c4.8,8.4,9.4,16.3,14.2,24.6c-4.5,2.6-8.6,5.1-13.3,7.9c3.9,6.8,7.7,13.4,11.7,20.3c18.4-8.6,37.5-13.7,57.7-15.6
		c0-14.7,0-29.2,0-44.3c-6.4,0-12.6,0-19,0c0-9.5,0-18.6,0-28c22.2,0,44.3,0,66.7,0c0,9.1,0,18.3,0,27.8c-6.3,0-12.4,0-18.8,0
		c0,14.8,0,29.4,0,44.4c19.9,1.9,39.1,6.9,57.6,15.6c3.9-6.9,7.7-13.3,11.7-20.3c-4.5-2.7-8.8-5.2-13.3-7.9
		c4.7-8.2,9.3-16.2,14.2-24.6c17.3,10,34.2,19.7,51.5,29.7c-4.8,8.3-9.4,16.3-14.2,24.6c-4.5-2.5-8.8-5-13.5-7.6
		c-3.9,6.8-7.8,13.4-11.8,20.4c16.5,11.8,30.6,25.8,42.3,42.4c13-7.5,25.5-14.8,38.3-22.1c-3.3-5.7-6.3-11-9.6-16.7
		c8.1-4.7,16-9.3,24.6-14.3c11.2,19.3,22.3,38.5,33.6,58.1c-8.4,4.8-16.3,9.4-24.6,14.2c-3.3-5.6-6.4-10.8-9.8-16.6
		c-12.8,7.4-25.4,14.6-38.3,22.1c8.6,18.4,13.6,37.6,15.5,57.7c7.8,0,15.5,0,23.4,0c0-5,0-9.8,0-15.1c9.5,0,18.6,0,28.1,0
		c0,19.6,0,39.1,0,59c-9.2,0-18.4,0-27.9,0c0-5.1,0-9.9,0-15.1c-7.9,0-15.5,0-23.6,0c-2,19.8-6.9,39-15.6,57.6
		c12.8,7.4,25.3,14.6,38.3,22.1c3.3-5.6,6.3-10.8,9.8-16.6c8.2,4.7,16.3,9.4,24.6,14.2c-11.3,19.6-22.3,38.7-33.5,58.1
		c-8.4-4.8-16.3-9.4-24.6-14.2c3.2-5.6,6.3-11,9.6-16.7c-12.9-7.4-25.4-14.7-38.3-22.1c-11.8,16.5-25.6,30.5-42.4,42.3
		c3.9,6.8,7.7,13.4,11.8,20.4c4.5-2.5,8.8-5,13.5-7.6c4.7,8.1,9.3,16.1,14.2,24.6c-17.1,9.9-34,19.7-51.5,29.8
		c-4.8-8.2-9.4-16.1-14.2-24.6c4.4-2.6,8.7-5.1,13.4-7.9c-4-6.9-7.8-13.5-11.7-20.3c-18.5,8.6-37.6,13.7-57.8,15.5
		c0,14.7,0,29.1,0,44.1c6.1,0,12.4,0,19.6,0c0,9.8,0,19.2,0,28.5C267.8,498,245.2,498,222.5,498z M144.1,235.5
		c-0.1,24.5,19.7,44.5,44.1,44.6c24.2,0.1,44.3-19.9,44.5-44.3c0.2-24.3-19.9-44.4-44.2-44.4C163.9,191.3,144.1,211,144.1,235.5z
		 M277.8,288.1c-21.8-0.5-40.7,17.2-41.3,38.7c-0.6,23.6,17,42.5,40,42.9c21.6,0.4,40.8-17.6,41.3-38.8
		C318.4,307.1,301.2,288.7,277.8,288.1z M314.2,247.3c22.2,0,40.2-18,40.2-40.1c0-22-18.2-40.2-40.1-40.3
		c-22.2-0.1-40.6,18.4-40.4,40.5C274,229.6,291.9,247.3,314.2,247.3z"/>
	<path class="st1" d="M255.2,112.3c81.1-0.3,146.1,63.2,146.6,143.3c0.5,79.4-65,145.1-144.8,145.4c-81,0.3-145.6-63.2-146.2-143.6
		C110.2,177.1,174.4,112.6,255.2,112.3z"/>
	<path class="st1" d="M289.7,328.9c-0.1,7.1-5.6,12.5-12.6,12.4s-12.5-5.7-12.5-12.7c0.1-6.9,5.9-12.7,12.7-12.6
		C284.2,316.2,289.7,321.9,289.7,328.9z"/>
	<path class="st1" d="M326.2,207c0.1,6.4-5.3,12.1-11.8,12.3c-6.6,0.2-12.5-5.6-12.4-12.2c0-6.5,5.5-11.9,12.1-11.9
		C320.6,195.1,326.1,200.4,326.2,207z"/>
</g>
<g class="st0">
	<path class="st2" d="M495.7,299.3c0,8.5,0,17,0,25.4c-0.6,2-1.6,3.9-1.9,5.9c-10.2,80.2-91.5,136-169.6,115.2
		c-17.3-4.6-33.7-13.1-51.3-20.1c-5.2,4.5-11.7,10-18,15.6c-13.2,11.5-21.1,12-34.2,0.7c-23-19.8-46.5-39.1-68.5-60
		c-30.4-28.9-61.4-57.4-89-88.9c-32.8-37.3-49.1-81.8-42.8-132.6C29.8,84.3,104.1,32.9,178.3,53c20.9,5.7,40.4,17,60.5,25.7
		c1.7,0.9,4.2-1,6.8-2.8c47.5-35.2,112.6-36.4,158.6-1.5c40.9,31,56.3,73.3,49.8,123.8c-1,7.6-0.9,13.5,5.3,19.8
		c14.2,14.5,24,32.2,29.8,51.7C491.9,279.4,493.5,289.4,495.7,299.3z M356.6,211.8c-54.7,0.2-99.8,44.4-100,98.2
		c-0.2,55,45.4,101.1,99.8,101s99.4-44.8,99.4-98.7C455.8,256,412.1,211.7,356.6,211.8z"/>
	<path class="st2" d="M339,314.8c15.4-15.6,29.2-29.7,43.1-43.6c10.4-10.3,22.2-11.4,30.6-3.1c8.6,8.5,7.8,20.3-2.6,30.7
		c-18.1,18.3-36.3,36.5-54.5,54.6c-10.8,10.7-21.2,10.7-32.2,0c-8.1-7.9-16.1-15.8-23.9-24c-7.9-8.3-8.1-19.8-1.1-27.5
		c7.9-8.5,18.8-9.1,28.1-0.8C330.8,304.8,334.2,309.4,339,314.8z"/>
</g>
<g class="st0">
	<path class="st2" d="M255.8,496C123.5,495.7,16,388,16.1,255.7C16.3,123.1,123.8,15.8,256.2,16c132.6,0.2,239.9,107.6,239.7,240
		C495.7,388.4,387.8,496.3,255.8,496z M272.8,171.8c-5.2,0-9.9,1-13.9-0.2c-7.5-2.4-14.1-0.6-20.9,2.1c-5.7,2.2-11.9,5.3-17.6,4.8
		c-8.2-0.7-12.4,2.9-15.7,8.9c-5.4,10-11.8,18.9-22.4,24.3c-2.7,1.4-4.7,4.7-6.5,7.4c-5.5,8.1-4.4,17.5-5.4,26.6
		c-0.9,8.8,1.5,16.1,5.9,23.5c7,11.9,17,20.5,27.9,28.6c3.8,2.9,7.2,4,11.6,2.4c8.9-3.2,17.9-6.3,26.8-9.5c3-1.1,5.2-1.6,6,2.9
		c1,5.3,4.1,6.5,9.5,4.8c3.2-1,6.5-1.8,10.1-2.8c0.9,7.7,2,14.3,2.2,21c0.1,4.5,1.3,8,5.1,10.3c4.2,2.7,5.3,6.7,6.7,11.3
		c3.4,11.6,4.4,22.6-1.5,34c-1.7,3.3-0.6,9.1,1,13c2.7,6.7,7.5,12.6,10.3,19.3c2.5,6.1,3.6,12.7,5,19.2c0.6,2.8,0.1,5.8,0.1,9.2
		c7.9-1.2,15.2-1.4,21.7-3.7c7.3-2.6,14.4-6.5,20.8-11.1c5.4-3.9,9.8-9.4,14.3-14.5c1.5-1.7,3-4.4,2.9-6.5c-0.4-5.9,0.5-11,4.9-15.4
		c3.5-3.5,6.3-7.6,9.8-11.1c6.3-6.5,9.6-13.6,7.3-22.9c-1-4-2.2-8.9-0.8-12.4c2.9-7.3,7-14.3,11.6-20.7c6.1-8.6,13.4-16.3,19.8-24.8
		c2.2-2.9,3-6.8,4.4-10.3c-6.1-2.4-12,3.9-16.6-1.4c-3.8-4.4-6.8-9.5-10.1-14.2c-0.9-1.3-2-2.5-2.8-3.9c-4-7.6-8.2-15.1-11.9-22.8
		c-2-4.3-3.3-8.9-4.9-13.4c-5.2-14.4-15.4-23.1-30.3-26.7c-6.5-1.6-12.8-3.7-19.3-5.5c-1.4-0.4-3.3-0.5-4.5,0.2
		c-10.1,5.2-20.3,3.2-30.4,0.2c-3.9-1.2-6.5-3.6-7-8.2C275.6,179.8,273.9,175.8,272.8,171.8z M281.8,137.2c0.6-0.4,1.2-0.7,1.8-1.1
		c4.8,2.6,9.5,5.4,14.3,7.8c5.3,2.7,8.9,6.5,10.8,12.3c0.9,2.8,2.9,5.2,4.4,7.8c0.5,0,0.9,0,1.4,0c-1.3-5.2,1.3-5.7,5.1-5.9
		c4.7-0.2,9.3-1.1,13.9-2.1c3.4-0.7,4.7-3,4.3-6.7c-0.2-2.1,0.1-4.8,1.2-6.5c3.9-6,20.8-11.6,27.7-9.4c-1.8,2-3.5,4.1-4.9,5.7
		c5,2.4,9.8,4.3,14,7c1.3,0.9,1.5,3.9,1.6,6c0,0.4-2.8,1.2-4.4,1.3c-1.5,0.1-3.1-0.4-4.7-0.6c-9.7-1-19.3-1.7-28.1,4.2
		c-4,2.7-5.5,5.6-3.1,9.6c3.4,5.6,7.1,11,11.1,16.1c0.8,1,3.8,1.1,5.4,0.5c2.6-1,5-2.8,7.7-4.4c0.3,6.4,0.6,12,0.9,17.5
		c-2.1,0.6-3.8,1.1-5.6,1.6c10.2,15,20.3,29.5,30,44.3c2.7,4.2,4.5,9,6.2,13.8c1.8,5.1,4.4,7.4,9.8,6.3c3.2-0.6,6.6-1.7,9.4-3.4
		c7.9-4.9,15.6-10.3,23.4-15.4c3.8-2.5,4.8-5.3,1.3-9c-1.5-1.6-2.2-4.1-3.8-5.7c-1.5-1.5-3.7-2.5-5.7-3.3c-3.5-1.5-8.1-1.8-10.3-4.3
		c-3.1-3.4-4.4-8.4-6.9-13.5c1.7,0.6,2.8,0.7,3.6,1.3c8.3,6.6,18.4,9.8,27.7,14.4c13.7,6.8,25.2,16.9,28.7,33.3
		c0.7,3.4,2.6,6.5,3.9,9.8c0.8-0.2,1.6-0.4,2.5-0.5c-0.9-13.6-1-27.4-2.9-40.9c-9.6-65.3-42.7-116-96.9-153.2
		c-3.3-2.3-5.7-2.2-9-0.1c-4.5,2.9-11.9,0.4-14.2-4.4c-3.1-6.4-8-8.7-14.9-8.7c-11.8,0.1-23.5-0.4-35.3-0.6c-2.3,0-4.6,0.1-6.8,0.7
		c-8.6,2.7-16.9,6.1-25.6,8.4c-6.8,1.9-10.4,6.2-12.4,12.4c-0.8,2.6-0.5,4,2.9,3.6c9.6-1.3,9.6-1.2,13.6,7.9
		c0.1,0.3,0.2,0.8,0.4,0.9c3.6,1.5,7.1,3.2,10.9,4.1c1.1,0.2,3.1-2.1,4.2-3.6c2.4-3.2,4.4-6.5,6.9-10.3c1.1,2.1,1.8,3.3,2.4,4.6
		c3.1,6.5,2.8,12.7-0.7,15.6c-6.9,5.8-10.1,5.7-18-0.4c-0.8-0.7-1.7-1.3-2.5-2c-6.5-5.4-10.2-5.9-16.1,0.1
		c-8.2,8.2-17.6,13.9-28.4,17.8c-4.7,1.7-5.6,5.3-3.9,9.9c0.6,1.6,0.5,4.4-0.5,5.3c-3.1,2.6-6.5,5.1-10.3,6.5
		c-4.7,1.7-9.8,2.3-15.8,3.6c0,7.2-0.2,14.1,0.1,20.9c0.1,1.5,1.5,3.8,2.7,4.2c4.7,1.3,9.6,2,14.5,2.7c5.1,0.7,9.4-1.2,12.3-5.6
		c5.7-8.4,12.5-15.2,21.7-20.1c9.1-4.8,17-4.5,23.7,3.5c0.7,0.8,1.4,1.8,2.3,2c4.3,1,6.2,3.8,5.9,8.5c3.7-0.2,6.9-0.4,10.1-0.6
		c0.3-0.5,0.5-1,0.8-1.5c-4-4.2-8.3-8.3-12.1-12.7C284.2,142.6,283.2,139.7,281.8,137.2z M42,304.5c0.3,1.8,0.4,2.8,0.6,3.8
		c10.3,41.5,31.1,77,61.9,106.5c3.1,2.9,15.1,0.6,17.1-3.3c0.4-0.8,0.3-2.2-0.1-3c-3.3-6.3-1.3-12.3,0.6-18.4
		c1.2-3.9,3.2-7.6,3.7-11.5c0.4-3,0.2-7.7-1.7-9.2c-5-4-10.6-7.8-16.6-9.8c-10.9-3.7-19.7-9-23.5-20.7c-0.9-2.9-3.1-5.5-4.8-8.1
		c-5.5-8.3-14.3-12.3-22.4-17.3C52.2,310.6,47.4,307.8,42,304.5z M59,173.9c2-2.6,3-4.6,4.5-5.8c4.7-3.7,9.6-7.2,14.5-10.6
		c5.6-4,7.1-7.6,5.1-14c-1.7-5.6-6.5-10.6-2.1-17.3C61,139,30.5,225.9,37.8,248c1-4.2,1.5-8.5,2-12.8c1.1-9.2,0.9-18.7,6-27
		c6.3-10.2,12.5-20.4,18.7-30.7c1-1.6,1.5-3.5,2.8-6.5C63.9,172.2,62.1,172.8,59,173.9z M177.1,52.8c-0.4-0.5-0.8-1-1.2-1.5
		c-25.2,9.8-47.7,23.9-67.7,42.2c-1.2,1.1-1.6,3.2-2.4,4.9c3.9,0.8,7.1,1.5,10.3,1.9c2.3,0.3,4.9,0.9,7,0.2
		c8.9-3.3,14.1-11.1,20.2-17.7c8-8.6,15-18.2,25.6-24.1C171.9,57.1,174.4,54.8,177.1,52.8z M409.6,349.5c-0.6-0.1-1.2-0.2-1.7-0.3
		c-2.3,3.7-3.7,9.3-6.9,10.8c-8.3,3.7-11.1,9.9-12.7,17.9c-0.6,3.1-2.4,5.9-3.4,8.9c-0.6,1.8-1,3.9-0.6,5.7c0.4,1.9,1.5,3.9,2.8,5.2
		c0.4,0.4,3-1.2,4.4-2.1c12.2-8.2,15.2-21.1,17.4-34.3C409.5,357.5,409.4,353.5,409.6,349.5z M206.9,101.6c-4.8,6.9-4.8,7.7,1,13
		c1.8-2.4,3.6-4.9,5.9-8.2c0.4,3.2,0.6,5.2,0.9,7.9c8.3-2.4,17.4-0.9,23.4-8.7c-5.3-6.6-10.6-13.1-15.8-19.4
		c-12.1,1.1-6.3,11.4-8.6,17.5C211.1,102.9,209,102.2,206.9,101.6z"/>
</g>
<g>
	<path class="st3" d="M205.9,86.6c33.9,0,67.3,0,101.3,0c0-1.1,0-2.1,0-3.2c0.1-9.3-0.2-18.6,0.5-27.9C309,37,326,18.7,346.4,18.1
		c9.5-0.3,19.2-0.6,28.6,0.9c18.3,2.8,32.9,20.4,33.4,39c0.2,8.4,0.1,16.8,0.1,25.2c0,1,0,2,0,3.3c1.1,0.1,2.1,0.1,3.1,0.1
		c9.8,0,19.7,0.3,29.5-0.1c18.1-0.7,35.1,14.7,35.1,35.2c-0.1,113,0,226.1-0.1,339.1c0,14.3-6.4,25.1-19.1,31.7
		c-3.7,2-8.3,2.3-12.6,3.3c-1.3,0.3-2.7,0.1-4.1,0.1c-122.6,0-245.2,0-367.8,0c-15.2,0-25.8-7-32.5-20.3c-2.3-4.5-2.9-9.4-2.9-14.3
		c0-113.2,0-226.4,0-339.7c0-16.5,10.6-30.6,25.5-34c3.1-0.7,6.3-0.9,9.5-0.9c9.8-0.1,19.5,0,29.3,0c1,0,2,0,3.4,0
		c0-1.2,0-2.1,0-3.1c0-8-0.1-16,0-24.1c0.4-20,14.8-37.6,34.6-40.7c11.3-1.8,23-2,34.3,0.4c18.4,4,31.9,21.1,32.3,40.1
		c0.2,8,0,16,0.1,24.1C205.9,84.4,205.9,85.4,205.9,86.6z M442,462.2c0-91.1,0-182,0-272.9c-123.8,0-247.4,0-371.1,0
		c0,91,0,181.9,0,272.9C194.7,462.2,318.4,462.2,442,462.2z M172.1,99.9c0-12.8,0-25.5,0-38.3c0-5.3-2.8-8.5-7.8-8.7
		c-6-0.2-12-0.2-18,0c-4.7,0.2-7.3,2.9-7.8,7.5c-0.1,1.1-0.1,2.2-0.1,3.3c0,24,0,47.9,0,71.9c0,1.1,0,2.2,0.1,3.3
		c0.5,4.8,3.2,7.4,8,7.5c5.4,0.1,10.7,0.1,16.1,0.1c6.7,0,9.5-2.8,9.5-9.5C172.1,124.6,172.1,112.3,172.1,99.9z M341,99.6
		c0,3.2,0,6.4,0,9.6c0,9.7,0,19.3,0,29c0,5.2,2.9,8.2,8.1,8.3c5.9,0.1,11.8,0.1,17.8,0c2.9,0,5.5-1.1,6.7-3.9
		c0.8-1.9,1.1-4.2,1.1-6.3c0.1-17.8,0-35.5,0-53.3c0-6.7,0-13.5,0-20.2c0-7-2.8-9.8-9.8-9.8c-4.7,0-9.5,0-14.2,0
		c-7,0-9.7,2.8-9.7,9.8C341,75,341,87.3,341,99.6z"/>
</g>
</svg>
