<?xml version="1.0" encoding="utf-8"?>
<!-- Generator: Adobe Illustrator 24.3.0, SVG Export Plug-In . SVG Version: 6.00 Build 0)  -->
<svg version="1.1" id="Layer_1" xmlns="http://www.w3.org/2000/svg" xmlns:xlink="http://www.w3.org/1999/xlink" x="0px" y="0px"
	 viewBox="0 0 338.6 343.2" style="enable-background:new 0 0 338.6 343.2;" xml:space="preserve">
<style type="text/css">
	.st0{opacity:5.000000e-02;}
	.st1{fill:#FFFFFF;}
</style>
<g id="Layer_2_1_">
	<g id="Text">
		<g class="st0">
			<path class="st1" d="M11.2,225.7c0-3.1-2.5-5.6-5.6-5.6S0,222.6,0,225.7s2.5,5.6,5.6,5.6c0,0,0,0,0,0
				C8.7,231.3,11.2,228.8,11.2,225.7z"/>
			<path class="st1" d="M11.2,203.7c0-3.1-2.5-5.6-5.6-5.6c-3.1,0-5.6,2.5-5.6,5.6c0,3.1,2.5,5.6,5.6,5.6c0,0,0,0,0,0
				C8.7,209.3,11.2,206.8,11.2,203.7C11.2,203.7,11.2,203.7,11.2,203.7z"/>
			<path class="st1" d="M11.2,181.7c0-3.1-2.5-5.6-5.6-5.6S0,178.6,0,181.7s2.5,5.6,5.6,5.6c0,0,0,0,0,0
				C8.7,187.3,11.2,184.8,11.2,181.7C11.2,181.7,11.2,181.7,11.2,181.7z"/>
			<path class="st1" d="M5.7,159.7c0-0.1,0-0.1-0.1-0.1c0,0,0,0,0,0c-0.1,0-0.1,0-0.1,0.1c0,0.1,0,0.1,0.1,0.1c0,0,0,0,0,0
				C5.7,159.8,5.7,159.7,5.7,159.7z"/>
			<path class="st1" d="M11.2,137.7c0-3.1-2.5-5.6-5.5-5.6s-5.6,2.5-5.6,5.6c0,3.1,2.5,5.6,5.5,5.6c0,0,0,0,0,0
				C8.7,143.2,11.2,140.7,11.2,137.7C11.2,137.7,11.2,137.7,11.2,137.7z"/>
			<path class="st1" d="M9,115.6c0-1.9-1.5-3.4-3.4-3.4c-1.9,0-3.4,1.5-3.4,3.4c0,1.8,1.5,3.3,3.3,3.4C7.5,119,9,117.5,9,115.6
				C9,115.7,9,115.7,9,115.6z"/>
			<path class="st1" d="M6.5,93.6c0-0.5-0.4-0.8-0.9-0.8c-0.5,0-0.8,0.4-0.8,0.8c0,0.5,0.4,0.9,0.8,0.9S6.5,94.1,6.5,93.6
				C6.5,93.6,6.5,93.6,6.5,93.6z"/>
			<path class="st1" d="M33.2,291.8c0-3.1-2.5-5.6-5.5-5.6s-5.6,2.5-5.6,5.5c0,3.1,2.5,5.6,5.5,5.6c0,0,0,0,0,0
				C30.7,297.3,33.2,294.8,33.2,291.8z"/>
			<path class="st1" d="M29,269.8c0-0.7-0.6-1.4-1.3-1.4c-0.7,0-1.4,0.6-1.4,1.3c0,0.7,0.6,1.4,1.3,1.4c0,0,0,0,0,0
				C28.4,271.1,29,270.5,29,269.8z"/>
			<path class="st1" d="M30.7,247.7c0-1.7-1.4-3.1-3.1-3.1c-1.7,0-3.1,1.4-3.1,3.1s1.4,3.1,3.1,3.1c0,0,0,0,0,0
				C29.4,250.8,30.7,249.5,30.7,247.7C30.7,247.7,30.7,247.7,30.7,247.7z"/>
			<path class="st1" d="M33.2,225.7c0-3.1-2.5-5.6-5.6-5.6c-3.1,0-5.6,2.5-5.6,5.6c0,3.1,2.5,5.6,5.6,5.6c0,0,0,0,0,0
				C30.7,231.3,33.2,228.8,33.2,225.7z"/>
			<path class="st1" d="M28.3,203.7c0-0.4-0.3-0.7-0.7-0.7c-0.4,0-0.7,0.3-0.7,0.7c0,0.4,0.3,0.7,0.7,0.7c0,0,0,0,0,0
				C28,204.4,28.3,204.1,28.3,203.7z"/>
			<path class="st1" d="M28.9,181.7c0-0.7-0.6-1.3-1.3-1.2s-1.3,0.6-1.2,1.3c0,0.7,0.6,1.3,1.3,1.2C28.3,183,28.9,182.4,28.9,181.7
				C28.9,181.7,28.9,181.7,28.9,181.7z"/>
			<path class="st1" d="M27.8,159.7c0-0.1-0.1-0.2-0.2-0.2c-0.1,0-0.2,0.1-0.2,0.2c0,0.1,0.1,0.2,0.2,0.2
				C27.7,159.8,27.8,159.8,27.8,159.7z"/>
			<path class="st1" d="M29.3,137.7c0-0.9-0.7-1.7-1.6-1.7c0,0,0,0,0,0c-0.9,0-1.6,0.8-1.6,1.7c0,0.9,0.7,1.6,1.7,1.6c0,0,0,0,0,0
				C28.6,139.3,29.3,138.6,29.3,137.7C29.3,137.7,29.3,137.7,29.3,137.7z"/>
			<path class="st1" d="M32.2,115.6c0-2.5-2.1-4.6-4.6-4.6c-2.5,0-4.6,2.1-4.6,4.6s2.1,4.6,4.6,4.6c0,0,0,0,0,0
				C30.2,120.2,32.2,118.2,32.2,115.6C32.2,115.7,32.2,115.6,32.2,115.6z"/>
			<path class="st1" d="M28.6,93.6c0-0.6-0.4-1-1-1s-1,0.4-1,1s0.4,1,1,1S28.6,94.2,28.6,93.6z"/>
			<path class="st1" d="M27.9,71.6c0-0.2-0.1-0.3-0.3-0.3c0,0,0,0,0,0c-0.2,0-0.3,0.1-0.3,0.3c0,0,0,0,0,0c0,0.2,0.1,0.3,0.3,0.3
				C27.8,71.9,27.9,71.8,27.9,71.6z"/>
			<path class="st1" d="M50.5,335.8c0-0.5-0.4-0.9-0.8-0.9c0,0,0,0,0,0c-0.5,0-0.9,0.4-0.8,0.9c0,0.5,0.4,0.8,0.8,0.9
				C50.1,336.7,50.5,336.3,50.5,335.8C50.5,335.8,50.5,335.8,50.5,335.8z"/>
			<path class="st1" d="M53,291.8c0-1.9-1.5-3.4-3.3-3.4c-1.9,0-3.4,1.5-3.4,3.3c0,1.9,1.5,3.4,3.3,3.4c0,0,0,0,0,0
				C51.5,295.1,53,293.6,53,291.8z"/>
			<path class="st1" d="M54.1,269.8c0-2.5-2-4.5-4.5-4.5c-2.5,0-4.5,2-4.5,4.5c0,2.5,2,4.5,4.4,4.5
				C52.1,274.2,54.1,272.2,54.1,269.8L54.1,269.8z"/>
			<path class="st1" d="M53.1,247.7c0-1.9-1.5-3.4-3.4-3.4s-3.4,1.5-3.4,3.4c0,1.9,1.5,3.4,3.4,3.4l0,0
				C51.5,251.2,53.1,249.6,53.1,247.7C53.1,247.7,53.1,247.7,53.1,247.7z"/>
			<path class="st1" d="M57.2,225.7c0-4.1-3.4-7.5-7.5-7.5s-7.5,3.4-7.5,7.5s3.4,7.5,7.5,7.5h0C53.8,233.2,57.1,229.9,57.2,225.7z"
				/>
			<path class="st1" d="M58.1,203.7c0-4.7-3.8-8.5-8.5-8.5s-8.5,3.8-8.5,8.5c0,4.7,3.8,8.5,8.5,8.5
				C54.3,212.2,58.1,208.4,58.1,203.7C58.1,203.7,58.1,203.7,58.1,203.7z"/>
			<ellipse class="st1" cx="49.6" cy="181.7" rx="5.7" ry="5.7"/>
			<path class="st1" d="M55.4,159.7c0-3.2-2.6-5.7-5.7-5.7s-5.7,2.6-5.7,5.8c0,3.2,2.6,5.7,5.7,5.7
				C52.8,165.4,55.4,162.9,55.4,159.7C55.4,159.7,55.4,159.7,55.4,159.7z"/>
			<path class="st1" d="M51.3,137.7c0-0.9-0.7-1.7-1.7-1.7c-0.9,0-1.6,0.7-1.6,1.7c0,0,0,0,0,0c0,0.9,0.7,1.6,1.6,1.6c0,0,0,0,0,0
				C50.6,139.3,51.3,138.6,51.3,137.7C51.3,137.7,51.3,137.7,51.3,137.7z"/>
			<circle class="st1" cx="49.6" cy="115.6" r="1.5"/>
			<path class="st1" d="M57.1,93.6c0-4.1-3.3-7.5-7.4-7.5s-7.5,3.3-7.5,7.4c0,4.1,3.3,7.5,7.4,7.5c0,0,0,0,0,0
				C53.7,101.1,57.1,97.8,57.1,93.6C57.1,93.6,57.1,93.6,57.1,93.6z"/>
			<path class="st1" d="M50.6,71.6c0-0.6-0.4-1-1-1s-1,0.4-1,1s0.4,1,1,1S50.6,72.2,50.6,71.6z"/>
			<path class="st1" d="M72,335.8c0-0.2-0.1-0.3-0.3-0.3c0,0,0,0,0,0c-0.2,0-0.3,0.1-0.4,0.2c0,0.2,0.1,0.3,0.2,0.4c0,0,0.1,0,0.1,0
				C71.9,336.1,72,336,72,335.8z"/>
			<path class="st1" d="M73.4,313.8c0-1-0.8-1.8-1.8-1.8c-1,0-1.8,0.8-1.8,1.8s0.8,1.8,1.8,1.8c0,0,0,0,0,0
				C72.6,315.5,73.4,314.8,73.4,313.8z"/>
			<path class="st1" d="M76,291.8c0-2.4-1.9-4.3-4.3-4.3c-2.4,0-4.3,1.9-4.3,4.3c0,2.4,1.9,4.3,4.3,4.4c0,0,0,0,0,0
				C74.1,296.1,76,294.2,76,291.8z"/>
			<path class="st1" d="M78.3,269.8c0-3.7-3-6.6-6.7-6.6s-6.6,3-6.6,6.7c0,3.7,3,6.6,6.7,6.6C75.3,276.4,78.3,273.4,78.3,269.8
				C78.3,269.8,78.3,269.8,78.3,269.8z"/>
			<path class="st1" d="M77.5,247.7c0-3.2-2.6-5.8-5.8-5.8c-3.2,0-5.8,2.6-5.8,5.8c0,3.2,2.6,5.8,5.8,5.8c0,0,0,0,0,0
				C74.9,253.5,77.5,250.9,77.5,247.7C77.5,247.7,77.5,247.7,77.5,247.7z"/>
			<path class="st1" d="M76.4,225.7c0-2.6-2.1-4.7-4.7-4.7c-2.6,0-4.7,2.1-4.7,4.7c0,2.6,2.1,4.7,4.7,4.7c0,0,0,0,0,0
				C74.3,230.4,76.4,228.3,76.4,225.7z"/>
			<path class="st1" d="M79.1,203.7c0-4.1-3.3-7.4-7.4-7.4s-7.5,3.3-7.5,7.4c0,4.1,3.3,7.4,7.4,7.4h0
				C75.8,211.1,79.1,207.8,79.1,203.7z"/>
			<path class="st1" d="M79,181.7c0-4-3.3-7.3-7.3-7.3c-4,0-7.3,3.3-7.3,7.3s3.3,7.3,7.3,7.3c0,0,0,0,0,0
				C75.7,189,79,185.7,79,181.7L79,181.7z"/>
			<path class="st1" d="M77.5,159.7c0-3.2-2.6-5.9-5.9-5.8s-5.9,2.6-5.8,5.9s2.6,5.9,5.9,5.8C74.9,165.5,77.5,162.9,77.5,159.7
				C77.5,159.7,77.5,159.7,77.5,159.7z"/>
			<path class="st1" d="M78.9,137.7c0-4-3.2-7.2-7.2-7.2c-4,0-7.2,3.2-7.2,7.2c0,4,3.2,7.2,7.2,7.2c0,0,0,0,0,0
				C75.6,144.8,78.9,141.6,78.9,137.7z"/>
			<path class="st1" d="M76.7,115.6c0-2.8-2.3-5.1-5.1-5.1c-2.8,0-5.1,2.3-5.1,5.1c0,2.8,2.3,5.1,5.1,5.1c0,0,0,0,0,0
				C74.5,120.7,76.7,118.4,76.7,115.6z"/>
			<path class="st1" d="M74.7,93.6c0-1.7-1.3-3-3-3s-3,1.3-3,3s1.3,3,3,3S74.7,95.3,74.7,93.6z"/>
			<path class="st1" d="M72.1,71.6c0-0.3-0.2-0.5-0.5-0.5c-0.3,0-0.5,0.2-0.5,0.5c0,0.3,0.2,0.5,0.5,0.5
				C71.9,72.1,72.1,71.9,72.1,71.6C72.1,71.6,72.1,71.6,72.1,71.6z"/>
			<path class="st1" d="M72.6,49.6c0-0.6-0.4-1-1-1s-1,0.4-1,1s0.4,1,1,1S72.6,50.2,72.6,49.6z"/>
			<path class="st1" d="M94.7,335.8c0-0.6-0.4-1-1-1s-1,0.4-1,1s0.4,1,1,1S94.7,336.4,94.7,335.8z"/>
			<path class="st1" d="M95.8,313.8c0-1.2-1-2.1-2.1-2.1s-2.1,1-2.1,2.1s1,2.1,2.1,2.1C94.8,315.9,95.8,315,95.8,313.8
				C95.8,313.8,95.8,313.8,95.8,313.8z"/>
			<path class="st1" d="M97.1,291.8c0-1.9-1.5-3.4-3.4-3.4c-1.9,0-3.4,1.5-3.4,3.4c0,1.9,1.5,3.4,3.4,3.4c0,0,0,0,0,0
				C95.6,295.2,97.1,293.7,97.1,291.8C97.1,291.8,97.1,291.8,97.1,291.8z"/>
			<path class="st1" d="M95.5,269.8c0-1-0.8-1.8-1.8-1.8s-1.8,0.8-1.8,1.8c0,1,0.8,1.8,1.8,1.8C94.7,271.6,95.5,270.8,95.5,269.8
				C95.5,269.8,95.5,269.8,95.5,269.8z"/>
			<path class="st1" d="M97.6,247.7c0-2.2-1.8-4-4-4s-4,1.8-4,4s1.8,4,4,4S97.6,249.9,97.6,247.7z"/>
			<path class="st1" d="M100.8,225.7c0-3.9-3.2-7.1-7.1-7.1c-3.9,0-7.1,3.2-7.1,7.1c0,3.9,3.2,7.1,7.1,7.1
				C97.6,232.9,100.8,229.7,100.8,225.7C100.8,225.7,100.8,225.7,100.8,225.7z"/>
			<path class="st1" d="M101.1,203.7c0-4.1-3.3-7.4-7.4-7.4s-7.4,3.3-7.4,7.4c0,4.1,3.3,7.4,7.4,7.4
				C97.7,211.1,101.1,207.8,101.1,203.7C101.1,203.7,101.1,203.7,101.1,203.7z"/>
			<path class="st1" d="M101.1,181.7c0-4.1-3.3-7.4-7.4-7.4s-7.4,3.3-7.4,7.4c0,4.1,3.3,7.4,7.4,7.4
				C97.8,189.1,101.1,185.8,101.1,181.7C101.1,181.7,101.1,181.7,101.1,181.7z"/>
			<path class="st1" d="M100.3,159.7c0-3.7-3-6.6-6.7-6.6c-3.7,0-6.6,3-6.6,6.7c0,3.7,3,6.6,6.6,6.6
				C97.3,166.3,100.3,163.4,100.3,159.7C100.3,159.7,100.3,159.7,100.3,159.7z"/>
			<path class="st1" d="M99.7,137.7c0-3.3-2.7-6-6-6s-6,2.7-6,6s2.7,6,6,6S99.7,141,99.7,137.7z"/>
			<path class="st1" d="M96,115.6c0-1.3-1.1-2.3-2.4-2.3c-1.3,0-2.3,1.1-2.3,2.4c0,1.3,1,2.3,2.3,2.3C95,118,96,117,96,115.6
				C96,115.7,96,115.7,96,115.6z"/>
			<circle class="st1" cx="93.7" cy="93.6" r="5.6"/>
			<path class="st1" d="M95.3,71.6c0-0.9-0.7-1.6-1.6-1.6c-0.9,0-1.6,0.7-1.6,1.6c0,0.9,0.7,1.6,1.6,1.6
				C94.5,73.2,95.3,72.5,95.3,71.6z"/>
			<path class="st1" d="M101.1,49.6c0-4.1-3.3-7.5-7.4-7.5s-7.5,3.3-7.5,7.4s3.3,7.5,7.4,7.5c0,0,0,0,0,0
				C97.8,57,101.1,53.7,101.1,49.6z"/>
			<path class="st1" d="M94.5,27.6c0-0.5-0.4-0.9-0.8-0.9c-0.5,0-0.9,0.4-0.9,0.9c0,0.5,0.4,0.9,0.8,0.9
				C94.1,28.4,94.5,28.1,94.5,27.6C94.5,27.6,94.5,27.6,94.5,27.6z"/>
			<path class="st1" d="M118.4,335.8c0-1.5-1.2-2.8-2.8-2.7c-1.5,0-2.7,1.2-2.7,2.8c0,1.5,1.2,2.8,2.8,2.8c0,0,0,0,0,0
				C117.2,338.5,118.4,337.3,118.4,335.8C118.4,335.8,118.4,335.8,118.4,335.8z"/>
			<path class="st1" d="M118.1,313.8c0-1.3-1.1-2.4-2.4-2.4c-1.3,0-2.4,1.1-2.4,2.4c0,1.3,1.1,2.4,2.4,2.4
				C117,316.2,118.1,315.1,118.1,313.8C118.1,313.8,118.1,313.8,118.1,313.8z"/>
			<path class="st1" d="M121.2,291.8c0-3.1-2.5-5.6-5.5-5.6s-5.6,2.5-5.6,5.5c0,3.1,2.5,5.6,5.5,5.6c0,0,0,0,0,0
				C118.8,297.3,121.2,294.8,121.2,291.8z"/>
			<path class="st1" d="M118.1,269.8c0-1.3-1.1-2.4-2.5-2.4c-1.3,0-2.4,1.1-2.4,2.5c0,1.3,1.1,2.4,2.4,2.4
				C117,272.2,118.1,271.1,118.1,269.8C118.1,269.8,118.1,269.8,118.1,269.8z"/>
			<path class="st1" d="M119.1,247.7c0-1.9-1.5-3.4-3.4-3.4c-1.9,0-3.4,1.5-3.4,3.4s1.5,3.4,3.4,3.4c0,0,0,0,0,0
				C117.6,251.1,119.1,249.6,119.1,247.7C119.1,247.7,119.1,247.7,119.1,247.7z"/>
			<path class="st1" d="M120.2,225.7c0-2.5-2-4.5-4.5-4.5c-2.5,0-4.5,2-4.5,4.5s2,4.5,4.5,4.5c0,0,0,0,0,0
				C118.2,230.2,120.2,228.2,120.2,225.7C120.2,225.7,120.2,225.7,120.2,225.7z"/>
			<circle class="st1" cx="115.7" cy="203.7" r="6.3"/>
			<path class="st1" d="M121.6,181.7c0-3.3-2.7-5.9-5.9-5.9c-3.3,0-5.9,2.7-5.9,5.9c0,3.3,2.7,5.9,5.9,5.9c0,0,0,0,0,0
				C119,187.6,121.6,185,121.6,181.7C121.6,181.7,121.6,181.7,121.6,181.7z"/>
			<path class="st1" d="M120.6,159.7c0-2.7-2.2-4.9-4.9-4.9c-2.7,0-4.9,2.2-4.9,4.9c0,2.7,2.2,4.9,4.9,4.9c0,0,0,0,0,0
				C118.4,164.5,120.6,162.4,120.6,159.7z"/>
			<path class="st1" d="M120.6,137.7c0-2.7-2.2-4.9-4.9-4.9c-2.7,0-4.9,2.2-4.9,4.9c0,2.7,2.2,4.9,4.9,4.9c0,0,0,0,0,0
				C118.4,142.5,120.6,140.4,120.6,137.7L120.6,137.7z"/>
			<circle class="st1" cx="115.7" cy="115.6" r="2.9"/>
			<path class="st1" d="M120.1,93.6c0-2.4-1.9-4.4-4.4-4.4c-2.4,0-4.4,1.9-4.4,4.4s1.9,4.4,4.4,4.4c0,0,0,0,0,0
				C118.1,98,120.1,96,120.1,93.6z"/>
			<path class="st1" d="M119.1,71.6c0-1.9-1.5-3.4-3.4-3.4c-1.9,0-3.4,1.5-3.4,3.4s1.5,3.4,3.4,3.4c0,0,0,0,0,0
				C117.6,75,119.1,73.5,119.1,71.6z"/>
			<path class="st1" d="M120,49.6c0-2.4-1.9-4.3-4.3-4.3s-4.3,1.9-4.3,4.3c0,2.4,1.9,4.3,4.3,4.3C118.1,53.9,120,52,120,49.6z"/>
			<circle class="st1" cx="115.7" cy="27.6" r="3.4"/>
			<path class="st1" d="M144.4,335.8c0-3.7-3-6.6-6.6-6.6c-3.7,0-6.7,3-6.7,6.6c0,3.7,3,6.6,6.6,6.6
				C141.4,342.5,144.3,339.5,144.4,335.8C144.4,335.8,144.4,335.8,144.4,335.8z"/>
			<path class="st1" d="M144.3,313.8c0-3.6-3-6.6-6.6-6.6s-6.6,3-6.6,6.6c0,3.6,2.9,6.6,6.6,6.6
				C141.3,320.4,144.3,317.4,144.3,313.8C144.3,313.8,144.3,313.8,144.3,313.8z"/>
			<path class="st1" d="M142.1,291.8c0-2.4-2-4.4-4.4-4.4c-2.4,0-4.4,2-4.4,4.4c0,2.4,2,4.4,4.4,4.4
				C140.1,296.2,142.1,294.2,142.1,291.8L142.1,291.8z"/>
			<path class="st1" d="M140.4,269.8c0-1.5-1.2-2.7-2.7-2.7c-1.5,0-2.7,1.2-2.7,2.7c0,1.5,1.2,2.7,2.7,2.7
				C139.2,272.4,140.4,271.2,140.4,269.8C140.4,269.8,140.4,269.8,140.4,269.8z"/>
			<path class="st1" d="M140.9,247.7c0-1.8-1.5-3.2-3.3-3.2c-1.8,0-3.2,1.5-3.2,3.3c0,1.8,1.5,3.2,3.2,3.2
				C139.5,251,140.9,249.5,140.9,247.7C140.9,247.8,140.9,247.7,140.9,247.7z"/>
			<circle class="st1" cx="137.7" cy="225.7" r="3.4"/>
			<path class="st1" d="M142.7,203.7c0-2.8-2.2-5-4.9-5.1c-2.8,0-5,2.2-5.1,4.9c0,2.8,2.2,5,4.9,5.1c0,0,0,0,0.1,0
				C140.4,208.6,142.6,206.4,142.7,203.7z"/>
			<path class="st1" d="M142.8,181.7c0-2.8-2.3-5.1-5.1-5.1c-2.8,0-5.1,2.3-5.1,5.1c0,2.8,2.3,5.1,5.1,5.1
				C140.5,186.8,142.8,184.5,142.8,181.7C142.8,181.7,142.8,181.7,142.8,181.7z"/>
			<path class="st1" d="M144.4,159.7c0-3.7-3-6.7-6.7-6.7s-6.7,3-6.7,6.7c0,3.7,3,6.7,6.7,6.7C141.4,166.4,144.4,163.4,144.4,159.7
				C144.4,159.7,144.4,159.7,144.4,159.7z"/>
			<path class="st1" d="M143.8,137.7c0-3.4-2.7-6.1-6.1-6.1c-3.4,0-6.1,2.7-6.1,6.1c0,3.4,2.7,6.1,6.1,6.1
				C141.1,143.8,143.8,141,143.8,137.7C143.8,137.7,143.8,137.7,143.8,137.7z"/>
			<path class="st1" d="M143.2,115.6c0-3-2.5-5.5-5.5-5.5s-5.5,2.5-5.5,5.5s2.5,5.5,5.5,5.5c0,0,0,0,0,0
				C140.7,121.1,143.2,118.7,143.2,115.6C143.2,115.6,143.2,115.6,143.2,115.6z"/>
			<path class="st1" d="M142.8,93.6c0-2.8-2.3-5.1-5.1-5.1c-2.8,0-5.1,2.3-5.1,5.1c0,2.8,2.3,5.1,5.1,5.1
				C140.5,98.7,142.8,96.4,142.8,93.6C142.8,93.6,142.8,93.6,142.8,93.6z"/>
			<path class="st1" d="M138.8,71.6c0-0.6-0.4-1-1-1c-0.6,0-1,0.4-1,1c0,0.5,0.4,1,0.9,1C138.3,72.6,138.7,72.2,138.8,71.6
				C138.7,71.6,138.8,71.6,138.8,71.6z"/>
			<path class="st1" d="M139.4,49.6c0-0.9-0.7-1.7-1.7-1.7c-0.9,0-1.6,0.7-1.6,1.7c0,0,0,0,0,0c0,0.9,0.7,1.6,1.6,1.6c0,0,0,0,0,0
				C138.6,51.2,139.4,50.5,139.4,49.6C139.4,49.6,139.4,49.6,139.4,49.6z"/>
			<path class="st1" d="M141.1,27.6c0-1.9-1.5-3.3-3.4-3.3s-3.3,1.5-3.3,3.4c0,1.8,1.5,3.3,3.3,3.3
				C139.6,30.9,141.1,29.5,141.1,27.6C141.1,27.6,141.1,27.6,141.1,27.6z"/>
			<path class="st1" d="M143.3,5.6c0-3.1-2.5-5.6-5.5-5.6c-3.1,0-5.6,2.5-5.6,5.5s2.5,5.6,5.5,5.6c0,0,0,0,0,0
				C140.8,11.1,143.3,8.6,143.3,5.6z"/>
			<path class="st1" d="M167.2,335.8c0-4.1-3.3-7.5-7.4-7.5s-7.5,3.3-7.5,7.4c0,4.1,3.3,7.5,7.4,7.5c0,0,0,0,0,0
				C163.8,343.2,167.2,339.9,167.2,335.8C167.2,335.8,167.2,335.8,167.2,335.8z"/>
			<path class="st1" d="M162.7,313.8c0-1.7-1.3-3-3-3s-3,1.3-3,3s1.3,3,3,3S162.7,315.4,162.7,313.8z"/>
			<path class="st1" d="M163.4,291.8c0-2-1.6-3.7-3.7-3.7s-3.7,1.6-3.7,3.7c0,2,1.6,3.7,3.7,3.7S163.4,293.8,163.4,291.8
				L163.4,291.8z"/>
			<path class="st1" d="M167.4,269.8c0-4.2-3.4-7.6-7.6-7.6s-7.6,3.4-7.6,7.6c0,4.2,3.4,7.6,7.6,7.6S167.4,274,167.4,269.8
				L167.4,269.8z"/>
			<path class="st1" d="M165.4,247.7c0-3.1-2.5-5.7-5.7-5.7s-5.7,2.5-5.7,5.7s2.5,5.7,5.7,5.7h0
				C162.9,253.4,165.4,250.9,165.4,247.7C165.4,247.7,165.4,247.7,165.4,247.7z"/>
			<path class="st1" d="M165.8,225.7c0-3.4-2.7-6.1-6.1-6.1c-3.4,0-6.1,2.7-6.1,6.1s2.7,6.1,6.1,6.1c0,0,0,0,0,0
				C163.1,231.8,165.8,229.1,165.8,225.7C165.8,225.7,165.8,225.7,165.8,225.7z"/>
			<path class="st1" d="M166,203.7c0-3.4-2.8-6.2-6.2-6.2c-3.4,0-6.2,2.8-6.2,6.2c0,3.4,2.8,6.2,6.2,6.2c0,0,0,0,0,0
				C163.2,209.9,166,207.2,166,203.7C166,203.7,166,203.7,166,203.7z"/>
			<ellipse class="st1" cx="159.7" cy="181.7" rx="4.3" ry="4.3"/>
			<path class="st1" d="M164.8,159.7c0-2.8-2.3-5.1-5.1-5.1s-5.1,2.3-5.1,5.1c0,2.8,2.3,5.1,5.1,5.1
				C162.5,164.7,164.8,162.5,164.8,159.7C164.8,159.7,164.8,159.7,164.8,159.7z"/>
			<path class="st1" d="M165.6,137.7c0-3.3-2.6-5.9-5.9-5.9c-3.3,0-5.9,2.6-5.9,5.9c0,3.3,2.6,5.9,5.9,5.9c0,0,0,0,0,0
				C163,143.6,165.6,140.9,165.6,137.7z"/>
			<path class="st1" d="M165.2,115.6c0-3-2.5-5.5-5.5-5.5s-5.5,2.5-5.5,5.5s2.5,5.5,5.5,5.5c0,0,0,0,0,0
				C162.8,121.1,165.2,118.7,165.2,115.6z"/>
			<path class="st1" d="M165.8,93.6c0-3.3-2.7-6-6-6c-3.3,0-6,2.7-6,6c0,3.3,2.7,6,5.9,6C163,99.7,165.7,97,165.8,93.6
				C165.8,93.7,165.8,93.6,165.8,93.6z"/>
			<path class="st1" d="M166.6,71.6c0-3.8-3.1-6.8-6.8-6.8c-3.8,0-6.8,3.1-6.8,6.8c0,3.8,3.1,6.8,6.8,6.8c0,0,0,0,0,0
				C163.5,78.4,166.6,75.4,166.6,71.6z"/>
			<path class="st1" d="M160.3,49.6c0-0.3-0.3-0.6-0.6-0.6c-0.3,0-0.6,0.3-0.6,0.6c0,0.3,0.3,0.6,0.6,0.6c0,0,0,0,0,0
				C160.1,50.2,160.3,49.9,160.3,49.6C160.3,49.6,160.3,49.6,160.3,49.6z"/>
			<circle class="st1" cx="159.7" cy="27.6" r="1.6"/>
			<path class="st1" d="M183.5,313.8c0-1-0.8-1.8-1.8-1.8c-1,0-1.8,0.8-1.8,1.8c0,1,0.8,1.8,1.8,1.8
				C182.7,315.5,183.5,314.8,183.5,313.8z"/>
			<path class="st1" d="M188.6,291.8c0-3.8-3.1-6.8-6.8-6.9c-3.8,0-6.8,3.1-6.9,6.8c0,3.8,3.1,6.8,6.8,6.9c0,0,0,0,0,0
				C185.5,298.6,188.6,295.5,188.6,291.8z"/>
			<path class="st1" d="M188.4,269.8c0-3.7-3-6.6-6.7-6.6s-6.6,3-6.6,6.7c0,3.7,3,6.6,6.6,6.6C185.4,276.4,188.4,273.5,188.4,269.8
				C188.4,269.8,188.4,269.8,188.4,269.8z"/>
			<path class="st1" d="M186.6,247.7c0-2.7-2.2-4.9-4.9-4.9c-2.7,0-4.9,2.2-4.9,4.9c0,2.7,2.2,4.9,4.9,4.9S186.6,250.4,186.6,247.7
				C186.6,247.7,186.6,247.7,186.6,247.7z"/>
			<path class="st1" d="M187.7,225.7c0-3.3-2.7-5.9-5.9-5.9c-3.3,0-5.9,2.7-5.9,5.9c0,3.3,2.6,5.9,5.9,5.9
				C185,231.6,187.7,229,187.7,225.7z"/>
			<path class="st1" d="M186.8,203.7c0-2.8-2.3-5.1-5.1-5.1c-2.8,0-5.1,2.3-5.1,5.1c0,2.8,2.3,5.1,5.1,5.1
				C184.5,208.8,186.8,206.5,186.8,203.7C186.8,203.7,186.8,203.7,186.8,203.7z"/>
			<path class="st1" d="M186.1,181.7c0-2.4-1.9-4.3-4.3-4.3c-2.4,0-4.3,1.9-4.3,4.3c0,2.4,1.9,4.3,4.3,4.3
				C184.1,186,186.1,184.1,186.1,181.7C186.1,181.7,186.1,181.7,186.1,181.7z"/>
			<path class="st1" d="M187.4,159.7c0-3.1-2.6-5.7-5.7-5.7c-3.1,0-5.7,2.6-5.7,5.7c0,3.1,2.5,5.7,5.7,5.7
				C184.9,165.4,187.4,162.8,187.4,159.7C187.4,159.7,187.4,159.7,187.4,159.7z"/>
			<path class="st1" d="M186.9,137.7c0-2.8-2.3-5.1-5.1-5.1s-5.1,2.3-5.1,5.1c0,2.8,2.3,5.1,5.1,5.1
				C184.6,142.8,186.9,140.5,186.9,137.7z"/>
			<path class="st1" d="M188.1,115.6c0-3.5-2.8-6.4-6.3-6.4s-6.4,2.8-6.4,6.3s2.8,6.4,6.3,6.4c0,0,0,0,0,0
				C185.2,122,188.1,119.1,188.1,115.6z"/>
			<path class="st1" d="M189.1,93.6c0-4-3.3-7.3-7.3-7.3c-4,0-7.3,3.3-7.3,7.3c0,4,3.3,7.3,7.3,7.3C185.8,100.9,189,97.7,189.1,93.6
				z"/>
			<path class="st1" d="M189.2,71.6c0-4.1-3.3-7.4-7.4-7.4c-4.1,0-7.4,3.3-7.4,7.4c0,4.1,3.3,7.4,7.4,7.4
				C185.8,79.1,189.2,75.7,189.2,71.6z"/>
			<path class="st1" d="M182.8,49.6c0-0.6-0.5-1.1-1.1-1.1s-1.1,0.5-1.1,1.1c0,0,0,0,0,0c0,0.6,0.5,1.1,1.1,1.1
				C182.3,50.7,182.8,50.2,182.8,49.6z"/>
			<path class="st1" d="M182,27.6c0-0.1-0.1-0.2-0.3-0.2c0,0,0,0,0,0c-0.1,0-0.3,0.1-0.3,0.2s0.1,0.3,0.2,0.3c0,0,0.1,0,0.1,0
				C181.9,27.8,182,27.7,182,27.6z"/>
			<path class="st1" d="M204.6,335.8c0.1-0.5-0.3-0.9-0.8-0.9c-0.5-0.1-0.9,0.3-0.9,0.8c0,0.1,0,0.1,0,0.2c0,0.5,0.4,0.9,0.8,0.9h0
				C204.2,336.7,204.6,336.3,204.6,335.8z"/>
			<path class="st1" d="M211.7,313.8c0-4.4-3.6-8-8-8s-8,3.6-8,8s3.6,8,8,8S211.7,318.2,211.7,313.8z"/>
			<path class="st1" d="M210.6,291.8c0-3.8-3.1-6.8-6.8-6.9c-3.8,0-6.8,3.1-6.9,6.8c0,3.8,3.1,6.8,6.8,6.9c0,0,0,0,0,0
				C207.5,298.6,210.6,295.5,210.6,291.8z"/>
			<path class="st1" d="M209.9,269.8c0-3.4-2.8-6.2-6.2-6.2s-6.2,2.8-6.2,6.2s2.8,6.2,6.2,6.2c0,0,0,0,0,0
				C207.2,275.9,209.9,273.2,209.9,269.8C209.9,269.8,209.9,269.8,209.9,269.8z"/>
			<path class="st1" d="M210.1,247.7c0-3.5-2.8-6.3-6.4-6.3s-6.3,2.8-6.3,6.4s2.8,6.3,6.3,6.3C207.3,254.1,210.1,251.3,210.1,247.7
				C210.1,247.7,210.1,247.7,210.1,247.7z"/>
			<path class="st1" d="M210.8,225.7c0-3.9-3.2-7.1-7.1-7.1s-7.1,3.2-7.1,7.1s3.2,7.1,7.1,7.1C207.7,232.8,210.8,229.6,210.8,225.7
				C210.8,225.7,210.8,225.7,210.8,225.7z"/>
			<path class="st1" d="M209.1,203.7c0-3-2.4-5.4-5.4-5.4c-3,0-5.4,2.4-5.4,5.4c0,3,2.4,5.4,5.4,5.4
				C206.7,209.1,209.1,206.7,209.1,203.7C209.1,203.7,209.1,203.7,209.1,203.7z"/>
			<path class="st1" d="M208.3,181.7c0-2.5-2-4.6-4.6-4.6c-2.5,0-4.6,2-4.6,4.6c0,2.5,2,4.6,4.6,4.6c0,0,0,0,0,0
				C206.3,186.3,208.3,184.2,208.3,181.7L208.3,181.7z"/>
			<path class="st1" d="M209.1,159.7c0-3-2.4-5.4-5.4-5.4c-3,0-5.4,2.4-5.4,5.4c0,3,2.4,5.4,5.4,5.4
				C206.7,165.1,209.1,162.7,209.1,159.7C209.1,159.7,209.1,159.7,209.1,159.7z"/>
			<circle class="st1" cx="203.8" cy="137.7" r="6.2"/>
			<path class="st1" d="M210.9,115.6c0-3.9-3.2-7.1-7.1-7.1s-7.1,3.2-7.1,7.1c0,3.9,3.2,7.1,7.1,7.1
				C207.7,122.8,210.9,119.6,210.9,115.6C210.9,115.7,210.9,115.7,210.9,115.6z"/>
			<circle class="st1" cx="203.8" cy="93.6" r="7.7"/>
			<path class="st1" d="M210.5,71.6c0-3.7-3-6.7-6.7-6.7s-6.7,3-6.7,6.7s3,6.7,6.7,6.7c0,0,0,0,0,0
				C207.5,78.3,210.5,75.3,210.5,71.6z"/>
			<path class="st1" d="M209.8,49.6c0-3.3-2.7-6-6-6c-3.3,0-6,2.7-6,6c0,3.3,2.7,6,5.9,6C207.1,55.6,209.8,52.9,209.8,49.6z"/>
			<circle class="st1" cx="203.8" cy="27.6" r="5.6"/>
			<path class="st1" d="M232.5,335.8c0-3.7-3-6.8-6.8-6.8c-3.7,0-6.8,3-6.8,6.8c0,3.7,3,6.8,6.8,6.8
				C229.5,342.6,232.5,339.5,232.5,335.8C232.5,335.8,232.5,335.8,232.5,335.8z"/>
			<path class="st1" d="M226.6,313.8c0-0.5-0.4-0.9-0.9-0.9s-0.9,0.4-0.9,0.9c0,0.5,0.4,0.9,0.8,0.9
				C226.2,314.6,226.6,314.3,226.6,313.8C226.6,313.8,226.6,313.8,226.6,313.8z"/>
			<path class="st1" d="M232.5,291.8c0-3.7-3-6.8-6.8-6.8c-3.7,0-6.8,3-6.8,6.8c0,3.7,3,6.8,6.8,6.8
				C229.5,298.5,232.5,295.5,232.5,291.8C232.5,291.8,232.5,291.8,232.5,291.8z"/>
			<path class="st1" d="M231.7,269.8c0-3.3-2.7-5.9-5.9-5.9c-3.3,0-5.9,2.7-5.9,5.9c0,3.3,2.6,5.9,5.9,5.9
				C229,275.7,231.7,273,231.7,269.8C231.7,269.8,231.7,269.8,231.7,269.8z"/>
			<path class="st1" d="M233.5,247.7c0-4.3-3.4-7.7-7.7-7.7c-4.3,0-7.7,3.4-7.7,7.7c0,4.2,3.4,7.7,7.7,7.7
				C230,255.4,233.5,252,233.5,247.7C233.5,247.7,233.5,247.7,233.5,247.7z"/>
			<path class="st1" d="M232.1,225.7c0-3.5-2.8-6.3-6.3-6.3s-6.3,2.8-6.3,6.3s2.8,6.3,6.3,6.3C229.2,232,232,229.2,232.1,225.7z"/>
			<path class="st1" d="M230.6,203.7c0-2.7-2.2-4.9-4.9-4.9c-2.7,0-4.9,2.2-4.9,4.9c0,2.7,2.2,4.9,4.9,4.9S230.6,206.4,230.6,203.7
				C230.6,203.7,230.6,203.7,230.6,203.7z"/>
			<path class="st1" d="M231,181.7c0-2.9-2.3-5.3-5.2-5.3c-2.9,0-5.3,2.3-5.3,5.2c0,2.9,2.3,5.3,5.2,5.3
				C228.6,186.9,231,184.6,231,181.7L231,181.7z"/>
			<path class="st1" d="M228.9,159.7c0-1.8-1.4-3.2-3.2-3.2s-3.2,1.4-3.2,3.2c0,1.7,1.4,3.2,3.2,3.2
				C227.5,162.8,228.9,161.4,228.9,159.7C228.9,159.7,228.9,159.7,228.9,159.7z"/>
			<path class="st1" d="M228.4,137.7c0-1.5-1.2-2.7-2.7-2.7c-1.5,0-2.7,1.2-2.7,2.7c0,1.5,1.2,2.7,2.7,2.7
				C227.2,140.4,228.4,139.2,228.4,137.7C228.5,137.7,228.5,137.7,228.4,137.7z"/>
			<path class="st1" d="M232.9,115.6c0-3.9-3.2-7.1-7.1-7.1c-3.9,0-7.1,3.2-7.1,7.2c0,3.9,3.2,7.1,7.1,7.1
				C229.7,122.8,232.9,119.6,232.9,115.6C232.9,115.7,232.9,115.7,232.9,115.6z"/>
			<path class="st1" d="M230.5,93.6c0-2.6-2.1-4.7-4.7-4.7c-2.6,0-4.7,2.1-4.7,4.7c0,2.6,2.1,4.7,4.7,4.7
				C228.4,98.3,230.5,96.2,230.5,93.6C230.5,93.6,230.5,93.6,230.5,93.6z"/>
			<path class="st1" d="M233.3,71.6c0-4.1-3.4-7.5-7.5-7.5c-4.1,0-7.5,3.4-7.5,7.5c0,4.1,3.4,7.5,7.5,7.5
				C229.9,79.1,233.3,75.8,233.3,71.6z"/>
			<path class="st1" d="M226.6,49.6c0-0.4-0.4-0.8-0.8-0.8s-0.8,0.4-0.8,0.8s0.4,0.8,0.8,0.8S226.6,50,226.6,49.6z"/>
			<path class="st1" d="M226,5.6c0-0.1-0.1-0.3-0.3-0.3c-0.1,0-0.2,0.1-0.2,0.3c0,0,0,0,0,0c0,0.1,0.1,0.2,0.2,0.2l0,0
				C225.9,5.8,226,5.7,226,5.6C226,5.6,226,5.6,226,5.6z"/>
			<path class="st1" d="M249.9,335.8c0-1.1-0.9-2.1-2.1-2.1c-1.1,0-2.1,0.9-2.1,2.1c0,1.1,0.9,2.1,2.1,2.1c0,0,0,0,0,0
				C248.9,337.9,249.9,336.9,249.9,335.8z"/>
			<path class="st1" d="M249.6,313.8c0-1-0.8-1.8-1.8-1.8s-1.8,0.8-1.8,1.8c0,1,0.8,1.8,1.8,1.8c0,0,0,0,0,0
				C248.8,315.5,249.6,314.8,249.6,313.8z"/>
			<path class="st1" d="M250.2,291.8c0-1.3-1.1-2.4-2.4-2.4c-1.3,0-2.4,1.1-2.4,2.4c0,1.3,1.1,2.4,2.4,2.4c0,0,0,0,0,0
				C249.1,294.1,250.2,293.1,250.2,291.8C250.2,291.8,250.2,291.8,250.2,291.8z"/>
			<path class="st1" d="M254.8,269.8c0-3.9-3.1-7-7-7s-7,3.1-7,7s3.1,7,7,7S254.8,273.6,254.8,269.8z"/>
			<path class="st1" d="M255,247.7c0-4-3.2-7.2-7.2-7.2c-4,0-7.2,3.2-7.2,7.2c0,4,3.2,7.2,7.2,7.2C251.8,255,255,251.7,255,247.7
				C255,247.8,255,247.7,255,247.7z"/>
			<circle class="st1" cx="247.8" cy="225.7" r="6.2"/>
			<path class="st1" d="M254.4,203.7c0-3.7-3-6.7-6.6-6.7c-3.7,0-6.7,3-6.7,6.6c0,3.7,3,6.7,6.6,6.7c0,0,0,0,0,0
				C251.5,210.3,254.4,207.4,254.4,203.7z"/>
			<path class="st1" d="M252.7,181.7c0-2.7-2.2-4.9-4.9-4.9c-2.7,0-4.9,2.2-4.9,4.9c0,2.7,2.2,4.9,4.9,4.9c0,0,0,0,0,0
				C250.5,186.6,252.7,184.4,252.7,181.7C252.7,181.7,252.7,181.7,252.7,181.7z"/>
			<path class="st1" d="M250.5,159.7c0-1.5-1.2-2.7-2.7-2.7s-2.7,1.2-2.7,2.7s1.2,2.7,2.7,2.7S250.5,161.1,250.5,159.7L250.5,159.7z
				"/>
			<path class="st1" d="M253,137.7c0-2.9-2.3-5.2-5.2-5.2c-2.9,0-5.2,2.3-5.2,5.2c0,2.9,2.3,5.2,5.2,5.2c0,0,0,0,0,0
				C250.7,142.8,253,140.5,253,137.7z"/>
			<path class="st1" d="M253.7,115.6c0-3.3-2.6-5.9-5.9-5.9c-3.3,0-5.9,2.6-5.9,5.9c0,3.3,2.6,5.9,5.9,5.9c0,0,0,0,0,0
				C251.1,121.6,253.7,118.9,253.7,115.6z"/>
			<path class="st1" d="M253.6,93.6c0-3.2-2.6-5.8-5.8-5.8s-5.8,2.6-5.8,5.8c0,3.2,2.6,5.8,5.8,5.8c0,0,0,0,0,0
				C251,99.4,253.6,96.8,253.6,93.6C253.6,93.6,253.6,93.6,253.6,93.6z"/>
			<path class="st1" d="M248.6,71.6c0.1-0.5-0.3-0.9-0.8-0.9c-0.5-0.1-0.9,0.3-0.9,0.8c0,0.1,0,0.1,0,0.2c0.1,0.5,0.5,0.8,0.9,0.8
				C248.3,72.3,248.6,72,248.6,71.6z"/>
			<circle class="st1" cx="247.8" cy="49.6" r="5.6"/>
			<path class="st1" d="M270.6,291.8c0-0.4-0.3-0.8-0.8-0.8c-0.4,0-0.8,0.3-0.8,0.8c0,0.4,0.3,0.8,0.8,0.8c0,0,0,0,0,0
				C270.2,292.6,270.6,292.2,270.6,291.8z"/>
			<path class="st1" d="M277.3,269.8c0-4.1-3.4-7.5-7.5-7.5c-4.1,0-7.5,3.4-7.5,7.5c0,4.1,3.4,7.5,7.5,7.5S277.3,273.9,277.3,269.8
				L277.3,269.8z"/>
			<path class="st1" d="M276.6,247.7c0-3.7-3-6.8-6.8-6.8c-3.7,0-6.8,3-6.8,6.8c0,3.7,3,6.8,6.8,6.8S276.6,251.5,276.6,247.7
				C276.6,247.7,276.6,247.7,276.6,247.7z"/>
			<path class="st1" d="M275.7,225.7c0-3.2-2.6-5.9-5.9-5.9c-3.2,0-5.9,2.6-5.9,5.9s2.6,5.9,5.9,5.9c0,0,0,0,0,0
				C273,231.6,275.7,229,275.7,225.7z"/>
			<path class="st1" d="M271.4,203.7c0-0.9-0.7-1.6-1.6-1.6s-1.6,0.7-1.6,1.6c0,0.9,0.7,1.6,1.6,1.6c0,0,0,0,0,0
				C270.7,205.3,271.4,204.6,271.4,203.7z"/>
			<path class="st1" d="M274.2,181.7c0-2.4-2-4.4-4.4-4.4c-2.4,0-4.4,2-4.4,4.4c0,2.4,2,4.4,4.4,4.4c0,0,0,0,0,0
				C272.2,186.1,274.2,184.1,274.2,181.7z"/>
			<path class="st1" d="M272.2,159.7c0-1.3-1.1-2.4-2.4-2.4c-1.3,0-2.4,1.1-2.4,2.4c0,1.3,1.1,2.4,2.4,2.4
				C271.2,162.1,272.2,161,272.2,159.7C272.2,159.7,272.2,159.7,272.2,159.7z"/>
			<path class="st1" d="M274.9,137.7c0-2.8-2.3-5.1-5.1-5.1c-2.8,0-5.1,2.3-5.1,5.1s2.3,5.1,5.1,5.1c0,0,0,0,0,0
				C272.6,142.7,274.9,140.5,274.9,137.7C274.9,137.7,274.9,137.7,274.9,137.7z"/>
			<path class="st1" d="M271.3,115.6c0-0.8-0.6-1.5-1.5-1.5c-0.8,0-1.5,0.6-1.5,1.5c0,0.8,0.6,1.5,1.5,1.5c0,0,0,0,0,0
				C270.6,117.1,271.3,116.4,271.3,115.6z"/>
			<path class="st1" d="M274.3,93.6c0-2.5-2-4.5-4.4-4.5c-2.5,0-4.5,2-4.5,4.4c0,2.5,2,4.5,4.5,4.5c0,0,0,0,0,0
				C272.3,98.1,274.3,96.1,274.3,93.6z"/>
			<path class="st1" d="M274.3,71.6c0-2.5-2-4.5-4.5-4.5c-2.5,0-4.5,2-4.5,4.5c0,2.5,2,4.5,4.5,4.5c0,0,0,0,0,0
				C272.3,76.1,274.3,74.1,274.3,71.6C274.3,71.6,274.3,71.6,274.3,71.6z"/>
			<path class="st1" d="M270,49.6c0-0.1-0.1-0.2-0.2-0.3c-0.1,0-0.3,0.1-0.3,0.3c0,0,0,0,0,0c0,0.1,0.1,0.2,0.3,0.2c0,0,0,0,0,0
				C269.9,49.8,270,49.7,270,49.6C270,49.6,270,49.6,270,49.6z"/>
			<path class="st1" d="M293.6,291.8c0-1-0.8-1.8-1.8-1.8c-1,0-1.8,0.8-1.8,1.8c0,1,0.8,1.8,1.8,1.8
				C292.8,293.5,293.6,292.7,293.6,291.8z"/>
			<path class="st1" d="M293.1,269.8c0-0.7-0.6-1.3-1.3-1.3s-1.3,0.6-1.3,1.3c0,0.7,0.6,1.3,1.3,1.3c0,0,0,0,0,0
				C292.5,271,293.1,270.5,293.1,269.8C293.1,269.8,293.1,269.8,293.1,269.8z"/>
			<path class="st1" d="M296.1,247.7c0-2.4-1.9-4.3-4.3-4.3c-2.4,0-4.3,1.9-4.3,4.3c0,2.4,1.9,4.3,4.3,4.3
				C294.2,252,296.1,250.1,296.1,247.7C296.1,247.7,296.1,247.7,296.1,247.7z"/>
			<circle class="st1" cx="291.8" cy="225.7" r="7.6"/>
			<ellipse class="st1" cx="291.8" cy="203.7" rx="3" ry="3"/>
			<circle class="st1" cx="291.8" cy="181.7" r="1.5"/>
			<path class="st1" d="M298.4,159.7c0-3.6-3-6.6-6.6-6.6c-3.6,0-6.6,3-6.6,6.6c0,3.6,2.9,6.6,6.6,6.6
				C295.4,166.3,298.4,163.3,298.4,159.7C298.4,159.7,298.4,159.7,298.4,159.7z"/>
			<path class="st1" d="M295.2,137.7c0-1.9-1.5-3.4-3.4-3.4c-1.9,0-3.4,1.5-3.4,3.4c0,1.9,1.5,3.4,3.4,3.4
				C293.7,141.1,295.2,139.6,295.2,137.7C295.2,137.7,295.2,137.7,295.2,137.7z"/>
			<path class="st1" d="M295.2,115.6c0-1.9-1.5-3.4-3.3-3.4c-1.9,0-3.4,1.5-3.4,3.3s1.5,3.4,3.3,3.4c0,0,0,0,0,0
				C293.7,119,295.2,117.5,295.2,115.6C295.2,115.6,295.2,115.6,295.2,115.6z"/>
			<path class="st1" d="M295.2,93.6c0-1.9-1.5-3.4-3.4-3.3c-1.9,0-3.4,1.5-3.3,3.4c0,1.9,1.5,3.3,3.4,3.3
				C293.7,97,295.2,95.5,295.2,93.6C295.2,93.6,295.2,93.6,295.2,93.6z"/>
			<circle class="st1" cx="291.8" cy="71.6" r="5.5"/>
			<circle class="st1" cx="291.8" cy="49.6" r="0.1"/>
			<path class="st1" d="M314.1,269.8c0-0.1-0.1-0.2-0.2-0.2c0,0,0,0,0,0c-0.1,0-0.2,0.1-0.2,0.2c0,0.1,0.1,0.2,0.2,0.2
				C314,270,314.1,269.9,314.1,269.8C314.1,269.8,314.1,269.8,314.1,269.8z"/>
			<path class="st1" d="M314.9,247.7c0-0.6-0.5-1.1-1.1-1.1c-0.6,0-1.1,0.5-1.1,1.1c0,0.6,0.5,1.1,1.1,1.1
				C314.4,248.8,314.9,248.3,314.9,247.7z"/>
			<path class="st1" d="M316.8,225.7c0-1.7-1.3-3-3-3s-3,1.3-3,3s1.3,3,3,3l0,0C315.5,228.7,316.8,227.4,316.8,225.7z"/>
			<path class="st1" d="M321.3,203.7c0-4.1-3.3-7.4-7.4-7.4c-4.1,0-7.4,3.3-7.4,7.4s3.3,7.4,7.4,7.4S321.3,207.8,321.3,203.7
				L321.3,203.7z"/>
			<path class="st1" d="M321.3,181.7c0-4.1-3.3-7.4-7.4-7.4c-4.1,0-7.4,3.3-7.4,7.4s3.3,7.4,7.4,7.4S321.3,185.8,321.3,181.7
				L321.3,181.7z"/>
			<path class="st1" d="M316.1,159.7c0-1.3-1-2.3-2.3-2.3c-1.3,0-2.3,1-2.3,2.3c0,1.3,1,2.3,2.3,2.3S316.2,160.9,316.1,159.7
				C316.1,159.7,316.1,159.7,316.1,159.7z"/>
			<path class="st1" d="M316,137.7c0-1.2-0.9-2.1-2.1-2.1s-2.1,0.9-2.1,2.1c0,1.2,0.9,2.1,2.1,2.1c0,0,0,0,0,0
				C315,139.8,316,138.8,316,137.7C316,137.7,316,137.7,316,137.7z"/>
			<path class="st1" d="M316,115.6c0-1.2-0.9-2.1-2.1-2.1c-1.2,0-2.1,0.9-2.1,2.1c0,1.2,0.9,2.1,2.1,2.1c0,0,0,0,0,0
				C315,117.8,316,116.8,316,115.6L316,115.6z"/>
			<path class="st1" d="M318.2,93.6c0-2.4-1.9-4.4-4.4-4.4c-2.4,0-4.4,1.9-4.4,4.4c0,2.4,1.9,4.4,4.4,4.4c0,0,0,0,0,0
				C316.3,98,318.2,96,318.2,93.6z"/>
			<path class="st1" d="M336.3,225.7c0-0.2-0.2-0.4-0.4-0.4c-0.2,0-0.4,0.2-0.4,0.4c0,0,0,0,0,0c0,0.2,0.2,0.4,0.4,0.4c0,0,0,0,0,0
				C336.1,226.1,336.3,226,336.3,225.7C336.3,225.7,336.3,225.7,336.3,225.7z"/>
			<path class="st1" d="M338.6,137.7c0-1.5-1.2-2.8-2.8-2.8s-2.8,1.2-2.8,2.8s1.2,2.8,2.8,2.8C337.4,140.4,338.6,139.2,338.6,137.7
				C338.6,137.7,338.6,137.7,338.6,137.7z"/>
			<path class="st1" d="M336.2,115.6c0-0.2-0.1-0.3-0.3-0.3c0,0,0,0,0,0c-0.2,0-0.3,0.1-0.3,0.3c0,0.2,0.1,0.3,0.3,0.3
				C336,116,336.2,115.8,336.2,115.6C336.2,115.6,336.2,115.6,336.2,115.6z"/>
			<path class="st1" d="M336.7,93.6c0-0.5-0.4-0.8-0.8-0.8c0,0,0,0,0,0c-0.5,0-0.9,0.4-0.9,0.8c0,0,0,0,0,0c0,0.5,0.4,0.8,0.9,0.8
				C336.3,94.5,336.7,94.1,336.7,93.6C336.7,93.6,336.7,93.6,336.7,93.6z"/>
		</g>
	</g>
</g>
</svg>
