<?xml version="1.0" encoding="utf-8"?>
<!-- Generator: Adobe Illustrator 24.3.0, SVG Export Plug-In . SVG Version: 6.00 Build 0)  -->
<svg version="1.1" id="Layer_1" xmlns="http://www.w3.org/2000/svg" xmlns:xlink="http://www.w3.org/1999/xlink" x="0px" y="0px"
	 viewBox="0 0 512 512" style="enable-background:new 0 0 512 512;" xml:space="preserve">
<g>
	<path d="M443.5,507.3c-22.4,0-44.8,0-67.1,0c0-0.3,0-0.7,0-1c0-70.5,0-140.9,0-211.4c0-0.7,0.1-1.5,0.2-2.4c20,0,39.8,0,59.6,0
		c2.7-24.8,5.4-49.4,8.1-74.2c-22.7,0-45.1,0-67.4,0c-0.2-0.4-0.3-0.6-0.3-0.7c0.2-14.9,0-29.9,0.6-44.8c0.5-11,6.1-17.1,16.5-19.3
		c3.5-0.7,7.1-0.9,10.7-0.9c12-0.1,23.9,0,35.9,0c0.9,0,1.8,0,2.8,0c0-24.8,0-49.2,0-73.7c-0.8,0-1.4-0.1-2-0.1
		c-21.6,0-43.2,0-64.8,0c-9.5,0-18.9,1-28.1,3.3c-24.9,6.2-42.8,20.4-52,44.7c-5.8,15.2-7.5,31.1-7.6,47.2c-0.1,13.8,0,27.7,0,41.5
		c0,0.9,0,1.8,0,3c-14.5,0-28.7,0-42.9,0c0,24.9,0,49.5,0,74.4c14.3,0,28.5,0,42.9,0c0,1.3,0,2.4,0,3.5c0,69.4,0,138.9,0,208.3
		c0,0.9-0.1,1.9-0.1,2.8c-73.5,0-146.9,0-220.4,0c-0.6-0.2-1.1-0.4-1.7-0.4c-27.9-2.9-51.4-22.7-58.7-49.6c-1.2-4.2-1.7-8.6-2.6-13
		c0-125.4,0-250.8,0-376.2c0.3-1.9,0.7-3.8,1-5.7C10.8,29.9,39.5,5.1,72.2,5.1C194.6,5,317,5,439.5,5.1c5,0,10.1,0.7,14.9,1.9
		c31.5,7.7,52.6,34.8,52.6,67.3c0,121.2,0,242.4,0,363.6c0,2.6-0.2,5.3-0.4,7.9c-2.6,27.7-22.8,51.6-49.6,58.9
		C452.5,505.8,447.9,506.4,443.5,507.3z"/>
</g>
</svg>
