<?xml version="1.0" encoding="utf-8"?>
<!-- Generator: Adobe Illustrator 24.3.0, SVG Export Plug-In . SVG Version: 6.00 Build 0)  -->
<svg version="1.1" id="Layer_1" xmlns="http://www.w3.org/2000/svg" xmlns:xlink="http://www.w3.org/1999/xlink" x="0px" y="0px"
	 viewBox="0 0 512 512" style="enable-background:new 0 0 512 512;" xml:space="preserve">
<style type="text/css">
	.st0{display:none;}
	.st1{display:inline;}
	.st2{fill:#FFFFFF;}
</style>
<g class="st0">
	<path class="st1" d="M222.5,498c0-9.2,0-18.5,0-28.2c6.9,0,13.1,0,19.8,0c0-7.8,0-15.2,0-22.5c0-7.2,0-14.4,0-21.8
		c-20.3-2-39.5-7-58-15.6c-3.9,6.8-7.7,13.3-11.7,20.2c4.4,2.7,8.6,5.2,13.3,8c-4.7,8.1-9.3,16.1-14.1,24.5
		c-17.2-9.9-34.1-19.7-51.5-29.7c4.7-8.2,9.3-16.2,14.2-24.6c4.5,2.5,8.8,5,13.4,7.7c3.9-6.7,7.7-13.3,11.8-20.3
		c-16.4-11.8-30.6-25.7-42.3-42.4c-12.9,7.5-25.5,14.7-38.3,22.1c3.2,5.6,6.2,10.9,9.6,16.7c-8.1,4.7-16.2,9.4-24.6,14.2
		c-11.2-19.4-22.3-38.6-33.5-58.1c8.3-4.8,16.3-9.4,24.6-14.2c3.2,5.5,6.3,10.7,9.8,16.6c12.7-7.3,25.3-14.6,37.7-21.7
		c-3.3-9.7-7.1-19-9.7-28.7c-2.6-9.5-3.9-19.3-5.9-29.4c-7.1,0-14.7,0-22.9,0c0,5,0,9.9,0,15.2c-9.5,0-18.6,0-28,0
		c0-19.6,0-39.2,0-59.1c9.1,0,18.3,0,27.8,0c0,5,0,9.8,0,15c7.9,0,15.5,0,23.7,0c2-19.8,6.9-39.1,15.6-57.6
		c-12.8-7.4-25.3-14.6-38.2-22.1c-3.3,5.6-6.5,10.9-9.9,16.6c-8.2-4.7-16.2-9.3-24.5-14.2c11.2-19.4,22.2-38.6,33.5-58.1
		c8.3,4.8,16.2,9.3,24.6,14.2c-3.2,5.6-6.3,11-9.6,16.7c12.7,7.4,25.3,14.7,38.3,22.1c11.8-16.5,25.8-30.6,42.4-42.3
		c-4-6.9-7.8-13.5-11.8-20.3c-4.5,2.6-8.7,4.9-13.4,7.6c-4.7-8-9.3-16-14.2-24.5c17.2-9.9,34.2-19.8,51.5-29.8
		c4.8,8.4,9.4,16.3,14.2,24.6c-4.5,2.6-8.6,5.1-13.3,7.9c3.9,6.8,7.7,13.4,11.7,20.3c18.4-8.6,37.5-13.7,57.7-15.6
		c0-14.7,0-29.2,0-44.3c-6.4,0-12.6,0-19,0c0-9.5,0-18.6,0-28c22.2,0,44.3,0,66.7,0c0,9.1,0,18.3,0,27.8c-6.3,0-12.4,0-18.8,0
		c0,14.8,0,29.4,0,44.4c19.9,1.9,39.1,6.9,57.6,15.6c3.9-6.9,7.7-13.3,11.7-20.3c-4.5-2.7-8.8-5.2-13.3-7.9
		c4.7-8.2,9.3-16.2,14.2-24.6c17.3,10,34.2,19.7,51.5,29.7c-4.8,8.3-9.4,16.3-14.2,24.6c-4.5-2.5-8.8-5-13.5-7.6
		c-3.9,6.8-7.8,13.4-11.8,20.4c16.5,11.8,30.6,25.8,42.3,42.4c13-7.5,25.5-14.8,38.3-22.1c-3.3-5.7-6.3-11-9.6-16.7
		c8.1-4.7,16-9.3,24.6-14.3c11.2,19.3,22.3,38.5,33.6,58.1c-8.4,4.8-16.3,9.4-24.6,14.2c-3.3-5.6-6.4-10.8-9.8-16.6
		c-12.8,7.4-25.4,14.6-38.3,22.1c8.6,18.4,13.6,37.6,15.5,57.7c7.8,0,15.5,0,23.4,0c0-5,0-9.8,0-15.1c9.5,0,18.6,0,28.1,0
		c0,19.6,0,39.1,0,59c-9.2,0-18.4,0-27.9,0c0-5.1,0-9.9,0-15.1c-7.9,0-15.5,0-23.6,0c-2,19.8-6.9,39-15.6,57.6
		c12.8,7.4,25.3,14.6,38.3,22.1c3.3-5.6,6.3-10.8,9.8-16.6c8.2,4.7,16.3,9.4,24.6,14.2c-11.3,19.6-22.3,38.7-33.5,58.1
		c-8.4-4.8-16.3-9.4-24.6-14.2c3.2-5.6,6.3-11,9.6-16.7c-12.9-7.4-25.4-14.7-38.3-22.1c-11.8,16.5-25.6,30.5-42.4,42.3
		c3.9,6.8,7.7,13.4,11.8,20.4c4.5-2.5,8.8-5,13.5-7.6c4.7,8.1,9.3,16.1,14.2,24.6c-17.1,9.9-34,19.7-51.5,29.8
		c-4.8-8.2-9.4-16.1-14.2-24.6c4.4-2.6,8.7-5.1,13.4-7.9c-4-6.9-7.8-13.5-11.7-20.3c-18.5,8.6-37.6,13.7-57.8,15.5
		c0,14.7,0,29.1,0,44.1c6.1,0,12.4,0,19.6,0c0,9.8,0,19.2,0,28.5C267.8,498,245.2,498,222.5,498z M144.1,235.5
		c-0.1,24.5,19.7,44.5,44.1,44.6c24.2,0.1,44.3-19.9,44.5-44.3c0.2-24.3-19.9-44.4-44.2-44.4C163.9,191.3,144.1,211,144.1,235.5z
		 M277.8,288.1c-21.8-0.5-40.7,17.2-41.3,38.7c-0.6,23.6,17,42.5,40,42.9c21.6,0.4,40.8-17.6,41.3-38.8
		C318.4,307.1,301.2,288.7,277.8,288.1z M314.2,247.3c22.2,0,40.2-18,40.2-40.1c0-22-18.2-40.2-40.1-40.3
		c-22.2-0.1-40.6,18.4-40.4,40.5C274,229.6,291.9,247.3,314.2,247.3z"/>
	<path class="st1" d="M255.2,112.3c81.1-0.3,146.1,63.2,146.6,143.3C402.3,335,336.8,400.7,257,401c-81,0.3-145.6-63.2-146.2-143.6
		C110.2,177.1,174.4,112.6,255.2,112.3z"/>
	<path class="st1" d="M289.7,328.9c-0.1,7.1-5.6,12.5-12.6,12.4c-7-0.1-12.5-5.7-12.5-12.7c0.1-6.9,5.9-12.7,12.7-12.6
		C284.2,316.2,289.7,321.9,289.7,328.9z"/>
	<path class="st1" d="M326.2,207c0.1,6.4-5.3,12.1-11.8,12.3c-6.6,0.2-12.5-5.6-12.4-12.2c0-6.5,5.5-11.9,12.1-11.9
		C320.6,195.1,326.1,200.4,326.2,207z"/>
</g>
<g>
	<path class="st2" d="M495.7,299.3c0,8.5,0,17,0,25.4c-0.6,2-1.6,3.9-1.9,5.9c-10.2,80.2-91.5,136-169.6,115.2
		c-17.3-4.6-33.7-13.1-51.3-20.1c-5.2,4.5-11.7,10-18,15.6c-13.2,11.5-21.1,12-34.2,0.7c-23-19.8-46.5-39.1-68.5-60
		c-30.4-28.9-61.4-57.4-89-88.9c-32.8-37.3-49.1-81.8-42.8-132.6C29.8,84.3,104.1,32.9,178.3,53c20.9,5.7,40.4,17,60.5,25.7
		c1.7,0.9,4.2-1,6.8-2.8c47.5-35.2,112.6-36.4,158.6-1.5c40.9,31,56.3,73.3,49.8,123.8c-1,7.6-0.9,13.5,5.3,19.8
		c14.2,14.5,24,32.2,29.8,51.7C491.9,279.4,493.5,289.4,495.7,299.3z M356.6,211.8c-54.7,0.2-99.8,44.4-100,98.2
		c-0.2,55,45.4,101.1,99.8,101c54.4-0.1,99.4-44.8,99.4-98.7C455.8,256,412.1,211.7,356.6,211.8z"/>
	<path class="st2" d="M339,314.8c15.4-15.6,29.2-29.7,43.1-43.6c10.4-10.3,22.2-11.4,30.6-3.1c8.6,8.5,7.8,20.3-2.6,30.7
		c-18.1,18.3-36.3,36.5-54.5,54.6c-10.8,10.7-21.2,10.7-32.2,0c-8.1-7.9-16.1-15.8-23.9-24c-7.9-8.3-8.1-19.8-1.1-27.5
		c7.9-8.5,18.8-9.1,28.1-0.8C330.8,304.8,334.2,309.4,339,314.8z"/>
</g>
</svg>
