<?xml version="1.0" encoding="utf-8"?>
<!-- Generator: Adobe Illustrator 24.3.0, SVG Export Plug-In . SVG Version: 6.00 Build 0)  -->
<svg version="1.1" id="Layer_1" xmlns="http://www.w3.org/2000/svg" xmlns:xlink="http://www.w3.org/1999/xlink" x="0px" y="0px"
	 viewBox="0 0 147 132" style="enable-background:new 0 0 147 132;" xml:space="preserve">
<style type="text/css">
	.st0{fill:#FFFFFF;enable-background:new    ;}
	.st1{display:none;opacity:0.6;}
	.st2{display:inline;fill:#3B3B51;}
</style>
<g id="Text">
	<path class="st0" d="M106,9.7c0,0-83.2-40-103.9,49.7c0,0-7.8,36.8,20.4,61.1c0,0,33.8,24.1,56.7-0.4c6.2-6.6,13.1-13.2,21.7-16.2
		C156.8,84.7,163.1,34.2,106,9.7z"/>
	<g class="st1">
		<path class="st2" d="M114,40.7c0-10.4-8.5-18.9-18.9-18.9c-6.1,0-11.9,3-15.4,8c-0.7-0.1-1.4-0.1-2.1-0.2s-2.2-0.2-5.7,0.4
			c-4.9,1-9.9,1-14.8,0c-3.5-0.7-5-0.6-5.7-0.4c-15.6,0.6-20.1,10.9-21.2,19.5c-0.7,7.3,1,14.6,5,20.8c4.4,7.2,4.7,15.8,4.8,16.5
			c-0.8,7.2,0.4,12.5,3.5,15.8c1.9,2,4.5,3.1,7.2,3.2H51c2.2,0.1,4.4-0.8,6-2.4c3.4-3.6,3.7-10.2,3.5-13.7c-0.1-1.5,0.1-3,0.6-4.4
			v-0.1c0.7-1.9,2.9-2.8,4.8-2.1c1,0.4,1.7,1.1,2.1,2.1v0.1c0.5,1.4,0.7,2.9,0.6,4.4c-0.2,3.6,0.1,10.2,3.5,13.7
			c1.5,1.6,3.6,2.5,5.8,2.4l0,0c2.8,0,5.6-1.1,7.5-3.2c3.1-3.3,4.3-8.6,3.6-15.8c0-0.8,0.3-9.3,4.8-16.5c2-3.3,3.5-6.9,4.4-10.6
			C107.3,57.8,114,49.9,114,40.7z M92,68.9c-3.1,5.4-4.8,11.4-5,17.6v0.1c0.7,6.6-0.3,11.4-2.9,14.2c-1.6,1.7-3.7,2.6-6,2.6
			c-1.7,0.1-3.3-0.6-4.5-1.8c-3-3.2-3.1-9.6-2.9-12.3c0.1-1.8-0.1-3.5-0.7-5.2V84c-1.1-2.9-4.4-4.4-7.3-3.3
			c-1.5,0.6-2.7,1.8-3.3,3.3v0.1c-0.6,1.7-0.8,3.4-0.7,5.2c0.1,2.6,0.1,9.1-2.9,12.3c-1.2,1.2-2.8,1.9-4.5,1.8c-2.3,0-4.4-0.9-6-2.6
			c-2.7-2.8-3.7-7.6-3-14.2v-0.1c-0.2-6.2-2-12.2-5.2-17.6c-3.7-5.8-5.4-12.7-4.7-19.5C33.6,38,40.2,32,51.7,31.6h0.2l0.1-0.1
			c0.2,0,1.3-0.2,4.7,0.5c5.1,1,10.4,1,15.6,0c3.4-0.7,4.5-0.5,4.7-0.5l0.1,0.1h0.2l1.1,0.1c-1.5,2.8-2.3,5.9-2.3,9
			c0,10.4,8.5,18.9,18.9,18.9c0.3,0,0.6,0,0.9,0C95.2,62.9,93.8,66,92,68.9z M95.1,57.5c-9.3,0-16.9-7.5-16.9-16.9
			c0-9.3,7.5-16.9,16.9-16.9S112,31.3,112,40.6c0,0,0,0,0,0C112,50,104.4,57.5,95.1,57.5L95.1,57.5z"/>
		<path class="st2" d="M105.1,36.2h-5.5v-5.5c0-0.9-0.7-1.6-1.6-1.6h-5.7c-0.9,0-1.6,0.7-1.6,1.6v5.5h-5.5c-0.9,0-1.6,0.7-1.6,1.6
			v5.7c0,0.9,0.7,1.6,1.6,1.6h5.5v5.5c0,0.9,0.7,1.6,1.6,1.6H98c0.9,0,1.6-0.7,1.6-1.6v-5.5h5.5c0.9,0,1.6-0.7,1.6-1.6v-5.6
			C106.7,37,106,36.2,105.1,36.2C105.1,36.2,105.1,36.2,105.1,36.2z M105.1,43.5h-6.3c-0.4,0-0.8,0.4-0.8,0.8c0,0,0,0,0,0v6.3h-5.7
			v-6.3c0-0.4-0.3-0.8-0.8-0.8c0,0,0,0,0,0h-6.3v-5.6h6.3c0.4,0,0.8-0.4,0.8-0.8l0,0v-6.3H98V37c0,0.4,0.4,0.8,0.8,0.8c0,0,0,0,0,0
			h6.3L105.1,43.5z"/>
	</g>
</g>
</svg>
