<svg width="150" height="150" viewBox="0 0 150 150" fill="none" xmlns="http://www.w3.org/2000/svg">
<path d="M50 18.75C32.7438 18.75 18.75 35.0294 18.75 55.1042V113.271C18.75 133.346 32.7438 149.625 50 149.625H100C117.256 149.625 131.25 133.346 131.25 113.271V55.1042C131.25 35.0294 117.256 18.75 100 18.75H50ZM112.5 33.2917C115.95 33.2917 118.75 36.549 118.75 40.5625C118.75 44.576 115.95 47.8333 112.5 47.8333C109.05 47.8333 106.25 44.576 106.25 40.5625C106.25 36.549 109.05 33.2917 112.5 33.2917ZM75 47.8333C92.2562 47.8333 106.25 64.1127 106.25 84.1875C106.25 104.262 92.2562 120.542 75 120.542C57.7438 120.542 43.75 104.262 43.75 84.1875C43.75 64.1127 57.7438 47.8333 75 47.8333ZM75 62.375C70.0272 62.375 65.2581 64.6731 61.7417 68.7637C58.2254 72.8544 56.25 78.4025 56.25 84.1875C56.25 89.9725 58.2254 95.5206 61.7417 99.6113C65.2581 103.702 70.0272 106 75 106C79.9728 106 84.7419 103.702 88.2583 99.6113C91.7746 95.5206 93.75 89.9725 93.75 84.1875C93.75 78.4025 91.7746 72.8544 88.2583 68.7637C84.7419 64.6731 79.9728 62.375 75 62.375Z" fill="black"/>
</svg>
