<?xml version="1.0" encoding="utf-8"?>
<!-- Generator: Adobe Illustrator 24.3.0, SVG Export Plug-In . SVG Version: 6.00 Build 0)  -->
<svg version="1.1" id="Layer_1" xmlns="http://www.w3.org/2000/svg" xmlns:xlink="http://www.w3.org/1999/xlink" x="0px" y="0px"
	 viewBox="0 0 512 512" style="enable-background:new 0 0 512 512;" xml:space="preserve">
<style type="text/css">
	.st0{display:none;}
	.st1{display:inline;}
</style>
<g class="st0">
	<path class="st1" d="M443.5,507.3c-22.4,0-44.8,0-67.1,0c0-0.3,0-0.7,0-1c0-70.5,0-140.9,0-211.4c0-0.7,0.1-1.5,0.2-2.4
		c20,0,39.8,0,59.6,0c2.7-24.8,5.4-49.4,8.1-74.2c-22.7,0-45.1,0-67.4,0c-0.2-0.4-0.3-0.6-0.3-0.7c0.2-14.9,0-29.9,0.6-44.8
		c0.5-11,6.1-17.1,16.5-19.3c3.5-0.7,7.1-0.9,10.7-0.9c12-0.1,23.9,0,35.9,0c0.9,0,1.8,0,2.8,0c0-24.8,0-49.2,0-73.7
		c-0.8,0-1.4-0.1-2-0.1c-21.6,0-43.2,0-64.8,0c-9.5,0-18.9,1-28.1,3.3c-24.9,6.2-42.8,20.4-52,44.7c-5.8,15.2-7.5,31.1-7.6,47.2
		c-0.1,13.8,0,27.7,0,41.5c0,0.9,0,1.8,0,3c-14.5,0-28.7,0-42.9,0c0,24.9,0,49.5,0,74.4c14.3,0,28.5,0,42.9,0c0,1.3,0,2.4,0,3.5
		c0,69.4,0,138.9,0,208.3c0,0.9-0.1,1.9-0.1,2.8c-73.5,0-146.9,0-220.4,0c-0.6-0.2-1.1-0.4-1.7-0.4c-27.9-2.9-51.4-22.7-58.7-49.6
		c-1.2-4.2-1.7-8.6-2.6-13c0-125.4,0-250.8,0-376.2c0.3-1.9,0.7-3.8,1-5.7C10.8,29.9,39.5,5.1,72.2,5.1C194.6,5,317,5,439.5,5.1
		c5,0,10.1,0.7,14.9,1.9c31.5,7.7,52.6,34.8,52.6,67.3c0,121.2,0,242.4,0,363.6c0,2.6-0.2,5.3-0.4,7.9
		c-2.6,27.7-22.8,51.6-49.6,58.9C452.5,505.8,447.9,506.4,443.5,507.3z"/>
</g>
<g>
	<path d="M162.3,364.5c-26.3-1.6-48.7-11.3-67.1-30.1c-10.3-10.6-17.7-23-22.4-37.5c7.3,1,14.2,1.9,21.3,1.6c7-0.3,14-1.2,20.9-3.3
		c-0.5-0.2-1-0.4-1.5-0.5c-14.9-3.6-28.2-10.1-39.9-20c-18-15.2-29.2-34.5-33.3-57.7c-0.9-4.9-1-9.8-1.5-14.8c-0.1-0.9,0-1.7,0-3.1
		c7,3.6,13.8,6.6,21,8.6c7.2,2,14.4,3.2,22.5,3.4c-26.4-19.2-40.9-44.6-42.5-76.8c-0.9-18.6,3.6-36.1,13-52.5
		c34.2,41.4,76.4,70.8,127.1,87.8c23.4,7.8,47.4,12.2,72.2,13.5c-0.5-3.1-1-6-1.4-8.9c-3.1-23.8,1.6-45.9,14.8-65.9
		c15.3-23.3,36.8-37.8,64.3-42.5c31-5.3,58.4,2.9,82,23.7c1.5,1.3,3,2.7,4.3,4.2c0.9,1.1,1.8,1.1,3.2,0.9
		c19.9-4.1,38.6-11.2,56.3-21.2c0.9-0.5,1.8-1,2.7-1.5c0.2,4.4-8.3,20.9-15.6,30.1c-7.1,9-15.5,16.5-25.1,22.7
		c18.6-2.1,36.4-7.2,53.8-14.3c-0.3,0.6-0.7,1.2-1,1.7c-12.3,17.9-27.1,33.3-44.5,46.3c-0.4,0.3-0.7,0.6-1.2,0.9
		c-0.9,0.5-1.1,1.2-1.1,2.2c0.1,1.8,0.1,3.7,0.1,5.5c0.2,11-0.2,22.1-1.4,33c-3.2,29.9-11,58.5-23.2,85.9
		c-15.5,34.8-36.9,65.5-64.8,91.5c-30.6,28.5-66.1,48.5-106.3,60c-14.5,4.1-29.2,7-44.1,8.8c-12,1.4-24.1,2.2-36.1,2.1
		c-52-0.3-100.2-14-144.3-41.6c-0.8-0.5-1.6-1-2.4-1.6c-0.1-0.1-0.2-0.3-0.4-0.6C73.1,409.6,120.3,396.5,162.3,364.5z"/>
</g>
</svg>
