<svg width="17" height="18" viewBox="0 0 17 18" fill="none" xmlns="http://www.w3.org/2000/svg">
<path fill-rule="evenodd" clip-rule="evenodd" d="M0.200638 2.90266C1.51903 3.81014 2.82693 4.72281 3.93093 5.89794C3.29809 8.69871 5.82383 10.9364 8.12735 12.2548C9.02911 12.7709 9.42769 13.1327 10.4316 12.9588L14.3849 16.8398C6.94503 19.3434 -1.40445 8.83996 0.200638 2.90266ZM11.4507 11.9609L12.3179 11.0784C12.5679 10.8235 12.9808 10.8203 13.2352 11.071L16.4325 14.2252C16.6867 14.4758 16.69 14.8895 16.4399 15.1443L15.5724 16.0269C15.3222 16.2817 14.9094 16.2849 14.655 16.0342L11.4577 12.88C11.2033 12.6295 11.2002 12.2158 11.4507 11.9609ZM0.979897 1.04636L1.60923 0.280692C1.87901 -0.0474916 2.36793 -0.0948555 2.69547 0.175455L5.96872 2.8773C6.29625 3.14789 6.3431 3.6375 6.07361 3.96611L5.44399 4.73136C5.17408 5.05996 4.68529 5.1069 4.35762 4.83659L1.08493 2.13475C0.757391 1.86444 0.709841 1.37455 0.979897 1.04636Z" fill="white"/>
</svg>
