<svg width="16" height="21" viewBox="0 0 16 21" fill="none" xmlns="http://www.w3.org/2000/svg">
<path fill-rule="evenodd" clip-rule="evenodd" d="M8.01835 4.07115C8.79791 4.07115 9.55997 4.2968 10.2082 4.71956C10.8563 5.14232 11.3615 5.74321 11.6599 6.44624C11.9582 7.14926 12.0362 7.92286 11.8842 8.66918C11.7321 9.41551 11.3567 10.1011 10.8054 10.6391C10.2542 11.1772 9.55189 11.5436 8.78731 11.6921C8.02272 11.8406 7.23021 11.7644 6.50999 11.4732C5.78977 11.182 5.17418 10.6888 4.74108 10.0561C4.30798 9.4234 4.07681 8.67954 4.07681 7.91859C4.07681 6.89818 4.49208 5.91957 5.23126 5.19804C5.97044 4.47651 6.97299 4.07115 8.01835 4.07115ZM8.25398 19.5657C9.29972 18.9061 10.2531 18.1164 11.0902 17.2167C12.8637 15.3327 14.093 13.0227 14.6523 10.523C15.1391 8.21116 14.9121 5.95682 13.8293 4.20814C13.5148 3.70273 13.128 3.24374 12.6806 2.84505C11.3708 1.67813 9.87737 1.12173 8.35793 1.1082C6.77092 1.09637 5.15965 1.68997 3.7355 2.78924C3.14773 3.24248 2.64228 3.78903 2.24031 4.40601C1.24064 5.94329 0.939174 7.85094 1.26836 9.84822C1.60447 11.8776 2.59549 14.0102 4.17383 15.9365C5.33169 17.3465 6.70838 18.5711 8.25398 19.5657ZM11.9339 17.9659C10.9536 19.0172 9.82611 19.9281 8.58489 20.6718C8.49257 20.7384 8.38174 20.7762 8.267 20.7801C8.15226 20.784 8.03899 20.7539 7.94212 20.6938C6.16906 19.6021 4.59411 18.2305 3.28157 16.6349C1.58368 14.5531 0.509503 12.2379 0.145669 10.0224C-0.228561 7.75962 0.123146 5.57968 1.27702 3.80902C1.7481 3.08784 2.33956 2.44876 3.02689 1.91828C4.65375 0.653276 6.51623 -0.0164317 8.36832 -0.00121104C10.1546 0.0140096 11.92 0.661732 13.4464 2.02821C13.9747 2.49877 14.431 3.04098 14.8013 3.63821C16.04 5.6338 16.3103 8.17565 15.7663 10.7496C15.1657 13.4453 13.8433 15.9372 11.9339 17.971V17.9659Z" fill="white"/>
</svg>
