<?xml version="1.0" encoding="utf-8"?>
<!-- Generator: Adobe Illustrator 24.3.0, SVG Export Plug-In . SVG Version: 6.00 Build 0)  -->
<svg version="1.1" id="Layer_1" xmlns="http://www.w3.org/2000/svg" xmlns:xlink="http://www.w3.org/1999/xlink" x="0px" y="0px"
	 viewBox="0 0 512 512" style="enable-background:new 0 0 512 512;" xml:space="preserve">
<style type="text/css">
	.st0{display:none;}
	.st1{display:inline;}
</style>
<g class="st0">
	<path class="st1" d="M443.5,507.3c-22.4,0-44.8,0-67.1,0c0-0.3,0-0.7,0-1c0-70.5,0-140.9,0-211.4c0-0.7,0.1-1.5,0.2-2.4
		c20,0,39.8,0,59.6,0c2.7-24.8,5.4-49.4,8.1-74.2c-22.7,0-45.1,0-67.4,0c-0.2-0.4-0.3-0.6-0.3-0.7c0.2-14.9,0-29.9,0.6-44.8
		c0.5-11,6.1-17.1,16.5-19.3c3.5-0.7,7.1-0.9,10.7-0.9c12-0.1,23.9,0,35.9,0c0.9,0,1.8,0,2.8,0c0-24.8,0-49.2,0-73.7
		c-0.8,0-1.4-0.1-2-0.1c-21.6,0-43.2,0-64.8,0c-9.5,0-18.9,1-28.1,3.3c-24.9,6.2-42.8,20.4-52,44.7c-5.8,15.2-7.5,31.1-7.6,47.2
		c-0.1,13.8,0,27.7,0,41.5c0,0.9,0,1.8,0,3c-14.5,0-28.7,0-42.9,0c0,24.9,0,49.5,0,74.4c14.3,0,28.5,0,42.9,0c0,1.3,0,2.4,0,3.5
		c0,69.4,0,138.9,0,208.3c0,0.9-0.1,1.9-0.1,2.8c-73.5,0-146.9,0-220.4,0c-0.6-0.2-1.1-0.4-1.7-0.4c-27.9-2.9-51.4-22.7-58.7-49.6
		c-1.2-4.2-1.7-8.6-2.6-13c0-125.4,0-250.8,0-376.2c0.3-1.9,0.7-3.8,1-5.7C10.8,29.9,39.5,5.1,72.2,5.1C194.6,5,317,5,439.5,5.1
		c5,0,10.1,0.7,14.9,1.9c31.5,7.7,52.6,34.8,52.6,67.3c0,121.2,0,242.4,0,363.6c0,2.6-0.2,5.3-0.4,7.9
		c-2.6,27.7-22.8,51.6-49.6,58.9C452.5,505.8,447.9,506.4,443.5,507.3z"/>
</g>
<g class="st0">
	<path class="st1" d="M162.3,364.5c-26.3-1.6-48.7-11.3-67.1-30.1c-10.3-10.6-17.7-23-22.4-37.5c7.3,1,14.2,1.9,21.3,1.6
		c7-0.3,14-1.2,20.9-3.3c-0.5-0.2-1-0.4-1.5-0.5c-14.9-3.6-28.2-10.1-39.9-20c-18-15.2-29.2-34.5-33.3-57.7c-0.9-4.9-1-9.8-1.5-14.8
		c-0.1-0.9,0-1.7,0-3.1c7,3.6,13.8,6.6,21,8.6c7.2,2,14.4,3.2,22.5,3.4c-26.4-19.2-40.9-44.6-42.5-76.8c-0.9-18.6,3.6-36.1,13-52.5
		c34.2,41.4,76.4,70.8,127.1,87.8c23.4,7.8,47.4,12.2,72.2,13.5c-0.5-3.1-1-6-1.4-8.9c-3.1-23.8,1.6-45.9,14.8-65.9
		c15.3-23.3,36.8-37.8,64.3-42.5c31-5.3,58.4,2.9,82,23.7c1.5,1.3,3,2.7,4.3,4.2c0.9,1.1,1.8,1.1,3.2,0.9
		c19.9-4.1,38.6-11.2,56.3-21.2c0.9-0.5,1.8-1,2.7-1.5c0.2,4.4-8.3,20.9-15.6,30.1c-7.1,9-15.5,16.5-25.1,22.7
		c18.6-2.1,36.4-7.2,53.8-14.3c-0.3,0.6-0.7,1.2-1,1.7c-12.3,17.9-27.1,33.3-44.5,46.3c-0.4,0.3-0.7,0.6-1.2,0.9
		c-0.9,0.5-1.1,1.2-1.1,2.2c0.1,1.8,0.1,3.7,0.1,5.5c0.2,11-0.2,22.1-1.4,33c-3.2,29.9-11,58.5-23.2,85.9
		c-15.5,34.8-36.9,65.5-64.8,91.5c-30.6,28.5-66.1,48.5-106.3,60c-14.5,4.1-29.2,7-44.1,8.8c-12,1.4-24.1,2.2-36.1,2.1
		c-52-0.3-100.2-14-144.3-41.6c-0.8-0.5-1.6-1-2.4-1.6c-0.1-0.1-0.2-0.3-0.4-0.6C73.1,409.6,120.3,396.5,162.3,364.5z"/>
</g>
<g class="st0">
	<path class="st1" d="M499.2,252.9c0,67.3,0,134.6,0,201.9c0,13.7-5.5,24.9-16.2,33.5c-6.4,5.1-13.8,7.6-22,7.7c-0.5,0-1,0-1.5,0
		c-133.3,0-266.5-0.1-399.8,0.1c-19.1,0-36-13.5-40.8-30.6c-0.9-3.2-1.1-6.7-1.6-10.1c-0.1-0.8,0-1.6,0-2.4c0-133.3,0-266.5,0-399.8
		c0-8.8,2.2-16.7,7.6-23.6c7-8.8,16.4-13.7,27.5-15.2c3-0.4,6-0.5,9-0.5c132.8,0,265.5,0,398.3,0c6.6,0,13,1,19,4
		c13.6,6.8,20.7,17.9,20.7,33C499.3,118.1,499.2,185.5,499.2,252.9z M419,415.4c0-1.6,0-2.9,0-4.2c0-38.4,0.1-76.7,0-115.1
		c0-7.5-0.4-15.1-1-22.6c-0.9-11.3-3.5-22.2-7.9-32.6c-8.3-19.4-22-33.3-42.2-40.4c-12.8-4.5-26.1-5.4-39.5-3.8
		c-13.9,1.6-26,7.1-36.4,16.6c-5,4.6-9.2,9.8-13.1,15.3c-0.4,0.6-1,1.1-1.8,2c0-5.5,0-10.3,0-15.1c0-4.8,0-9.6,0-14.3
		c-6.2-0.6-66.5-0.4-68.7,0.2c0,71.3,0,142.5,0,213.9c22.9,0,45.6,0,68.7,0c0-1.4,0-2.5,0-3.7c0-39.1,0-78.1,0-117.2
		c0-1.6,0-3.2,0.1-4.8c0.2-10.7,4.2-19.9,11.5-27.7c9.2-9.7,20.7-12.6,33.6-10.5c10.4,1.7,17.8,7.6,22.2,17
		c1.5,3.2,2.6,6.7,3.6,10.2c1.8,6.6,2.1,13.5,2.1,20.3c0,37.5,0,74.9,0,112.4c0,1.3,0,2.6,0,4C373.1,415.4,395.8,415.4,419,415.4z
		 M166.4,201.2c-7.4-0.6-66.4-0.3-68.5,0.3c0,71.3,0,142.5,0,213.9c22.9,0,45.7,0,68.5,0C166.4,343.9,166.4,272.6,166.4,201.2z
		 M134.4,168.3c1.6-0.1,3.4-0.1,5.2-0.4c12.4-1.6,22-7.3,27.8-18.6c5.8-11.3,5.7-23,0.7-34.6c-4.3-9.8-11.8-16.1-22-19
		c-4.6-1.3-9.3-1.7-14-1.4c-13.5,1-24.2,6.9-30.2,19.2c-5.8,11.8-5.7,24,0.2,35.7C108.5,162.4,119.9,167.9,134.4,168.3z"/>
</g>
<g>
	<path d="M504.3,182.2c0,48.6,0,97.3,0,145.9c-0.2,0.8-0.4,1.6-0.5,2.3c-2,13.9-3.3,27.9-6,41.6c-4.2,21.3-16.7,36.5-36.6,45.5
		c-9,4.1-18.8,5.5-28.5,6.3c-19.5,1.7-39.1,3.6-58.7,4.3c-37.9,1.3-75.8,2.3-113.7,2.5c-49,0.3-97.9-0.7-146.8-4.2
		c-15-1.1-30-2.4-44.7-5c-26.7-4.7-43.9-20.7-51.1-46.9c-3.8-13.8-5.5-28.1-6.4-42.3c-1.5-22.3-2.8-44.7-3.3-67
		c-0.7-25.7,0.6-51.4,2.6-77c1.2-15.2,2.9-30.4,5.9-45.4c2.8-14.1,9-26.3,19.4-36.3C47,95.9,60.5,91,75.5,89.1
		c21.9-2.9,43.9-4.3,65.9-5.1c27.4-1,54.8-1.5,82.2-2.2c1.8,0,3.5-0.3,5.3-0.4c18.8,0,37.5,0,56.3,0c1,0.1,1.9,0.3,2.9,0.3
		c40.6,0.5,81.3,1.4,121.8,4.6c13,1.1,26.1,2.3,38.9,4.9c24,5,40,19.7,47.6,43.1c3.8,11.7,5.1,23.9,6.6,36.1
		C503.3,174.3,503.8,178.2,504.3,182.2z M337.8,256.1c-43.6-25.1-86.7-49.9-130.1-74.9c0,50.2,0,99.7,0,149.8
		C251.1,306,294.2,281.1,337.8,256.1z"/>
</g>
</svg>
